<?xml version="1.0" encoding="utf-8"?>
<!-- Generator: Adobe Illustrator 22.1.0, SVG Export Plug-In . SVG Version: 6.00 Build 0)  -->
<svg version="1.1" id="Layer_1" xmlns="http://www.w3.org/2000/svg" xmlns:xlink="http://www.w3.org/1999/xlink" x="0px" y="0px"
	 viewBox="0 0 681 441" style="enable-background:new 0 0 681 441;" xml:space="preserve">
<style type="text/css">
	.st0{fill:#E4E4E4;}
	.st1{display:none;fill:#FFFFFF;}
	.st2{fill:#008342;}
	.st3{fill:#FFFFFF;}
	.st4{fill:#464546;}
	.st5{fill:#FFFFFF;stroke:#FFFFFF;}
</style>
<g>
	<rect x="67.5" y="343.9" class="st0" width="598.1" height="44.1"/>
	<g>
		<g>
			<path class="st1" d="M575,12.8h18.7c-0.8,0.9-1.6,1.8-2.3,2.7l1-1.4c-6.2-0.1-12.4-0.4-18.6,0.2C574.1,13.9,574.7,13.2,575,12.8z
				"/>
			<path class="st2" d="M573.9,14.3c6.2-0.6,12.4-0.3,18.6-0.2l-1,1.4C556.2,61.8,521,108,485.7,154.1c16,19.1,32,38.2,48,57.2
				c-7.2,0-14.3,0-21.5,0c-14.4-17.6-29-35.1-43.4-52.7c0-2.7,0-5.4,0-8.2c24.9-32.3,49.9-64.5,74.8-96.8
				C553.7,40.5,564.1,27.7,573.9,14.3z"/>
			<path class="st2" d="M191.1,102.7c13.4-6.6,29.4-7.3,43.6-3c12.6,3.7,24.1,12.1,30.4,23.8c2.6,4.6,4,9.7,5.4,14.8
				c-5.9,0-11.7,0-17.6,0c-1.9-6.7-5.6-13.1-11.4-17.1c-8.3-6.1-18.9-8.2-29.1-7.7c-9.7,1.1-19.1,5.5-25.5,13
				c-8.4,9.5-11.7,22.9-9.6,35.4c1.9,14.2,11.7,27.4,25.4,32.2c5.8,2.4,12.2,2.3,18.4,2c13.5-1,25.9-10,31-22.5c-14-0.1-28,0-42,0
				c-0.1-5.4,0-10.9-0.1-16.3c20.4,0,40.7,0,61.1,0c-0.8,7.3-0.9,14.9-3.9,21.7c-6.8,15.9-21.8,27.5-38.4,31.7
				c-10.4,2.8-21.6,1.9-31.7-1.6c-13.1-4.4-24.2-14.2-30.3-26.6c-8.6-17.2-8.5-38.5,0.1-55.7C172,116.4,180.7,107.8,191.1,102.7z"/>
			<path class="st2" d="M279.1,97.8c23.1,0,46.2,0,69.3,0c0,5.4,0,10.9,0,16.3c-17.6,0-35.2,0-52.8,0c0,10.6,0,21.3,0,31.9
				c17.2,0,34.5,0,51.7,0c0,5.6,0,11.2,0,16.8c-17.2,0-34.4,0-51.7,0c0,10.7,0,21.4,0,32.1c17.6,0.1,35.3,0,52.9,0
				c0,5.4,0,10.9,0,16.4c-23.1,0-46.2,0-69.4,0C279.1,173.5,279.2,135.7,279.1,97.8z"/>
			<path class="st2" d="M368.5,97.8c23.1,0,46.2,0,69.3,0c0,5.4,0,10.9,0,16.3c-17.6,0-35.2,0-52.8,0c0,10.6,0,21.3,0,31.9
				c17.2,0,34.5,0,51.7,0c0,5.6,0,11.2,0,16.8c-17.2,0-34.5,0-51.7,0c0,10.7,0,21.4,0,32.1c17.6,0,35.3,0,52.9,0
				c0,5.5,0,10.9,0,16.4c-23.1,0-46.3,0-69.4,0C368.5,173.5,368.5,135.7,368.5,97.8z"/>
			<path class="st2" d="M449.4,97.8c5.4,0,10.9,0,16.3,0c0,37.8,0,75.7,0,113.5c-5.4,0-10.9,0-16.3,0
				C449.4,173.5,449.4,135.7,449.4,97.8z"/>
			<path class="st3" d="M17.2,115.2c5.9,0,11.7,0,17.6,0c14.1,43.6,28.6,87.2,42.8,130.8c6.6,19.6,12.7,39.4,19.6,58.9
				c3-9.9,6.9-19.6,10.1-29.4c2.9-7.9,5.4-16,8.6-23.9c4.2,0.1,8.4,0.1,12.6,0c6.4,17.3,12.5,34.8,18.4,52.2
				c0.3-0.2,0.9-0.6,1.2-0.7c8.6-26.9,17.8-53.5,26.7-80.3c5.8,0,11.5,0,17.3,0c-12.9,38.1-25.5,76.2-38.4,114.3
				c-3.8,0-7.6,0-11.4,0c-6.9-18.2-13.3-36.5-20.2-54.7c-6.6,18.2-13,36.5-19.8,54.7c-3.8-0.1-7.5-0.1-11.3,0
				c-23.1-68.7-45.9-137.6-68.9-206.3C20.5,125.6,18.5,120.5,17.2,115.2z"/>
			<path class="st3" d="M367.1,222.8c9.3,0,18.7,3.2,25.5,9.6c13.4,12.6,14.7,35.9,2.7,49.9c-5.3,6.4-13.1,10-21.1,11.7
				c12,14.1,23.8,28.3,35.8,42.5c-7.1,0-14.2,0-21.3,0c-13.2-15.9-26.5-31.9-39.8-47.8c-2.7-2.6-1.2-6.6-1.5-9.9
				c6.6,0,13.1,0,19.7,0c5.5,0,11.1-2,14.9-6.1c6.1-6.6,6.8-17.4,1.8-24.8c-3.8-5.8-10.9-8.6-17.6-8.5c-8.3,0-16.5,0-24.8,0
				c0,32.4,0,64.7,0,97.1c-5.4,0-10.9,0-16.3,0c0-37.9,0.1-75.7,0-113.6C339.1,222.7,353.1,222.7,367.1,222.8z"/>
			<path class="st3" d="M423.6,222.8c5.4,0,10.8,0,16.2,0c0,37.8,0,75.7,0,113.5c-5.4,0-10.9,0-16.3,0
				C423.6,298.5,423.6,260.7,423.6,222.8z"/>
			<path class="st3" d="M442.8,275.7c13.2-17.6,26.6-35.1,39.7-52.8c6.9-0.1,13.9,0,20.8,0c-14.6,18.7-28.9,37.6-43.5,56.3
				c16,19.1,31.8,38.2,48,57.1c-5.9,0.1-11.8,0-17.7,0.1c-1.7-0.1-3.9,0.4-5-1.4c-13.7-16.5-27.2-33.1-41-49.6
				C441.7,282.8,443.2,278.9,442.8,275.7z"/>
			<path class="st3" d="M517.2,222.9c6.7-0.1,13.4,0,20.1,0c10.3,14.1,20.7,28.3,30.9,42.5c10.7-14,20.8-28.4,31.3-42.5
				c6.7,0,13.3,0,20,0c-11.7,16.2-23.4,32.4-35.1,48.6c-1.9,2.8-4.4,5.4-5.9,8.5c4.5,7.2,9.9,13.7,14.8,20.7
				c21,29.2,42.5,58,63.5,87.2c-6.4,0.2-12.8,0-19.1,0.1c-23-30.9-45.5-62.1-68.6-93c-0.7-1.2-1.9,0.4-2.3,1
				c-9.8,13.4-19.3,26.9-29.2,40.1c-6.7,0.6-13.5,0.1-20.3,0.2c11.8-16.2,23.6-32.4,35.4-48.7c1.8-2.6,3.9-5,5.4-7.8
				C544.9,260.7,530.9,241.9,517.2,222.9z"/>
		</g>
		<g>
			<path class="st3" d="M250.5,219.2c-32.3,0-58.5,26.2-58.5,58.5s26.2,58.5,58.5,58.5S309,310,309,277.7S282.8,219.2,250.5,219.2z
				 M250.7,320.3c-23.6,0-42.8-19.2-42.8-42.8c0-23.6,19.1-42.8,42.8-42.8c23.6,0,42.8,19.1,42.8,42.8
				C293.5,301.1,274.3,320.3,250.7,320.3z"/>
		</g>
	</g>
</g>
<g>
	<path class="st4" d="M90.2,351.6h5.5c4.4,0,8,0.6,11.5,3.4c3.4,2.8,4.9,6.6,4.9,10.8c0,4.1-1.6,7.8-4.8,10.5c-3.5,3-7,3.6-11.6,3.6
		h-5.5V351.6L90.2,351.6z M95.9,377c3.6,0,6.6-0.5,9.3-2.9c2.4-2.2,3.7-5.1,3.7-8.3c0-3.2-1.3-6.3-3.8-8.5c-2.7-2.3-5.7-2.7-9.1-2.7
		h-2.4V377H95.9L95.9,377z"/>
	<path class="st4" d="M124.9,351.6h15.2v2.9h-12v8.4h11.6v2.9h-11.6V377h12v2.9h-15.2L124.9,351.6L124.9,351.6z"/>
	<path class="st4" d="M167.4,357.1c-1.2-2-2.6-3.1-5.1-3.1c-2.6,0-4.9,1.8-4.9,4.4c0,2.4,2.6,3.6,4.6,4.4l2,0.8
		c3.8,1.6,7.1,3.5,7.1,8c0,5-4.1,8.7-9.2,8.7c-4.7,0-8.2-2.9-9.2-7.3l3.2-0.9c0.4,2.9,2.7,5.3,5.9,5.3s6-2.3,6-5.5
		c0-3.3-2.7-4.4-5.4-5.6l-1.8-0.8c-3.4-1.5-6.4-3.2-6.4-7.2c0-4.4,3.9-7.2,8.2-7.2c3.3,0,6,1.6,7.6,4.4L167.4,357.1z"/>
	<path class="st4" d="M187.5,379.9h-3.3v-28.3h3.3V379.9z"/>
	<path class="st4" d="M229,365.7c0.1,3.8-0.4,7-3,10c-2.7,3-6.8,4.7-10.9,4.7c-8.3,0-15.1-6.6-15.1-14.6c0-8.1,6.9-14.7,15.3-14.7
		c5.1,0,9.3,2.2,12.4,6.1l-2.4,2.1c-2.5-3.3-5.8-5.3-10.1-5.3c-6.7,0-12,5.4-12,11.8c0,3,1.3,5.9,3.4,8c2.1,2.1,5.3,3.6,8.3,3.6
		c5.1,0,10.5-3.6,10.5-8.9h-8.7v-2.9L229,365.7L229,365.7z"/>
	<path class="st4" d="M242.2,350.4l22.9,23.1v-21.9h3.3v29.6l-22.9-23.1v21.8h-3.3V350.4z"/>
	<path class="st2" d="M339.9,375.9c-2.6,2.3-5.7,4.5-9.4,4.5c-4.5,0-8.6-3.2-8.6-7.7c0-4.7,3.6-7,7.2-9.3l0.4-0.2
		c-1.3-1.8-2.9-3.7-2.9-6c0-3.6,2.8-6,6.4-6c3.3,0,6.2,2.3,6.2,5.5c0,3.4-2.7,5.2-5.2,7.1l6.2,7.6l3.3-3.7l2.4,1.9l-3.7,4.2l5,6.2
		H343L339.9,375.9z M329.9,366.4c-2.2,1.5-4.9,3.2-4.9,6.1c0,2.7,2.4,5.1,5.2,5.1c3,0,5.5-2.2,7.6-4l-6.6-8.1L329.9,366.4z
		 M332.4,361.3c1.7-1.2,3.7-2.3,3.7-4.6c0-1.7-1.5-2.9-3.2-2.9c-1.8,0-3.2,1.4-3.2,3.1c0,1.4,1,2.5,1.8,3.6l0.7,0.9L332.4,361.3z"/>
	<path class="st4" d="M395.3,351.6h5.5c4.4,0,8,0.6,11.5,3.4c3.4,2.8,4.9,6.6,4.9,10.8c0,4.1-1.6,7.8-4.8,10.5
		c-3.5,3-7,3.6-11.6,3.6h-5.5V351.6L395.3,351.6z M400.9,377c3.6,0,6.6-0.5,9.3-2.9c2.4-2.2,3.7-5.1,3.7-8.3c0-3.2-1.3-6.3-3.8-8.5
		c-2.7-2.3-5.7-2.7-9.1-2.7h-2.4V377H400.9L400.9,377z"/>
	<path class="st4" d="M430,351.6h15.2v2.9h-12v8.4h11.6v2.9h-11.6V377h12v2.9H430V351.6L430,351.6z"/>
	<path class="st4" d="M468.3,373.2l8.4-21.6h3.6l-11.9,30l-11.9-30h3.6L468.3,373.2z"/>
	<path class="st4" d="M491.7,351.6h15.2v2.9h-12v8.4h11.6v2.9h-11.6V377h12v2.9h-15.2V351.6z"/>
	<path class="st4" d="M524,377h8.1v2.9h-11.4v-28.3h3.3L524,377L524,377z"/>
	<path class="st4" d="M572.8,365.8c0,8.1-6.9,14.6-15.3,14.6c-8.4,0-15.3-6.5-15.3-14.6s6.9-14.7,15.3-14.7
		C565.9,351.1,572.8,357.7,572.8,365.8z M545.5,365.8c0,6.4,5.4,11.7,12.1,11.7c6.7,0,12-5.3,12-11.7c0-6.4-5.3-11.7-12-11.7
		C550.8,354,545.5,359.3,545.5,365.8z"/>
	<path class="st4" d="M588.8,379.9h-3.3v-28.3h4.8c2.5,0,5.1,0.1,7.3,1.5c2.2,1.5,3.3,3.9,3.3,6.5c0,2.3-1,4.6-2.8,6.1
		c-2,1.6-4.5,1.9-7,1.9h-2.4v12.3H588.8z M588.8,364.6h2.2c3.6,0,6.7-1.1,6.7-5.1c0-4.6-3.9-5-7.7-5h-1.2V364.6L588.8,364.6z"/>
</g>
<g>
	<path class="st2" d="M586.4,52.6c0.7,0,1.2-0.1,1.4-0.4c0.3-0.2,0.4-0.7,0.4-1.2c0-0.6-0.2-1-0.4-1.2c-0.3-0.2-0.8-0.4-1.4-0.4H585
		v3.2L586.4,52.6 M585.1,54.8v4.7h-3.2V47.1h4.9c1.6,0,2.8,0.3,3.6,0.8s1.2,1.4,1.2,2.6c0,0.8-0.2,1.5-0.6,2c-0.4,0.5-1,0.9-1.8,1.2
		c0.4,0.1,0.8,0.3,1.2,0.7s0.7,0.9,1.1,1.6l1.8,3.5h-3.4l-1.5-3.1c-0.3-0.6-0.6-1.1-0.9-1.3c-0.3-0.2-0.7-0.4-1.3-0.4h-1.1"/>
	<g>
		<path class="st2" d="M587,39c-8,0-14.5,6.5-14.5,14.5S579,68,587,68s14.5-6.5,14.5-14.5S595,39,587,39z M587,64.1
			c-5.8,0-10.6-4.8-10.6-10.6s4.7-10.6,10.6-10.6c5.8,0,10.6,4.7,10.6,10.6C597.7,59.3,592.9,64.1,587,64.1z"/>
	</g>
</g>
<g>
	<path class="st5" d="M73.5,420.6l-3.1,8.5h-1.8l9.1-24.2h1.7l9,24.2h-1.8l-3.2-8.5H73.5z M82.9,419.1l-3.1-8.1
		c-0.6-1.7-0.9-2.9-1.3-4.3h-0.1c-0.4,1.4-0.8,2.7-1.3,4.2l-3.1,8.2H82.9z"/>
	<path class="st5" d="M92.2,415.9c0-1.6-0.1-2.8-0.1-4.1h1.6l0.1,3.1h0.1c1-1.9,3.2-3.5,6.1-3.5c1.7,0,6.2,0.8,6.2,7.3V429h-1.8
		v-10.2c0-3.1-1.3-6-4.9-6c-2.5,0-4.6,1.7-5.4,4c-0.1,0.4-0.2,1-0.2,1.5V429h-1.8V415.9z"/>
	<path class="st5" d="M122.1,404.9V429h-1.8v-24.2H122.1z"/>
	<path class="st5" d="M127.4,426.4c1.4,0.9,3.4,1.6,5.5,1.6c3.7,0,6-2.1,6-5c0-2.7-1.5-4.3-5.1-5.7c-4-1.4-6.5-3.4-6.5-6.7
		c0-3.5,3-6.1,7.3-6.1c2.4,0,4.1,0.6,5,1.1L139,407c-0.7-0.5-2.3-1.1-4.4-1.1c-4,0-5.4,2.5-5.4,4.4c0,2.7,1.6,4.1,5.2,5.4
		c4.1,1.6,6.3,3.4,6.3,7c0,3.5-2.6,6.6-8,6.6c-2.2,0-4.7-0.7-6-1.6L127.4,426.4z"/>
	<path class="st5" d="M166,416.7c0,8.5-5.4,12.7-11.2,12.7c-6.2,0-10.9-4.7-10.9-12.2c0-7.9,5-12.7,11.2-12.7
		C161.4,404.5,166,409.2,166,416.7z M145.6,417.1c0,5.4,3.3,10.9,9.2,10.9c6,0,9.3-5.2,9.3-11.2c0-5.1-2.9-10.9-9.2-10.9
		C148.6,405.9,145.6,411.5,145.6,417.1z"/>
	<path class="st5" d="M179.2,427.9c0.7,0.1,1.6,0,2.7-0.2c2-0.3,3.8-1.2,5.3-2.7c1.6-1.7,2.8-4,3.3-7.4l-0.1,0c-1.5,1.9-3.7,3-6.2,3
		c-4.5,0-6.9-3.4-6.9-7.1c0-4.3,3-8.2,7.7-8.2c4.1,0,7.3,3.4,7.3,9.7c0,5.3-1.9,8.9-4.1,11c-1.6,1.6-3.8,2.7-5.7,3
		c-1.3,0.2-2.4,0.3-3.2,0.3V427.9z M179,413.4c0,3.5,2.2,5.7,5.4,5.7c2.6,0,4.7-1.3,5.7-3c0.1-0.3,0.3-0.6,0.3-1
		c0-4.9-1.9-8.3-5.8-8.3C181.3,406.8,179,409.6,179,413.4z"/>
	<path class="st5" d="M210.4,417c0,8.4-3.1,12.4-7.9,12.4c-3.8,0-7.3-3.6-7.4-11.9c0-8.5,3.9-12.2,7.9-12.2
		C207.2,405.3,210.4,409,210.4,417z M196.9,417.5c0,6.5,2.3,10.5,5.8,10.5c4,0,5.9-4.4,5.9-10.8c0-6.1-1.7-10.5-5.8-10.5
		C199.4,406.7,196.9,410.6,196.9,417.5z"/>
	<path class="st5" d="M228.5,417c0,8.4-3.1,12.4-7.9,12.4c-3.8,0-7.3-3.6-7.4-11.9c0-8.5,3.9-12.2,7.9-12.2
		C225.4,405.3,228.5,409,228.5,417z M215,417.5c0,6.5,2.3,10.5,5.8,10.5c4,0,5.9-4.4,5.9-10.8c0-6.1-1.7-10.5-5.8-10.5
		C217.5,406.7,215,410.6,215,417.5z"/>
	<path class="st5" d="M238.7,407.5L238.7,407.5l-4,2.2l-0.4-1.4l4.6-2.6h1.6V429h-1.7V407.5z"/>
	<path class="st5" d="M258,418.4v1.5h-8.8v-1.5H258z"/>
	<path class="st5" d="M260.8,429V428l2.2-2.2c6.7-6.3,9.7-9.6,9.7-13.6c0-2.7-1.2-5.3-5.3-5.3c-2.3,0-4.1,1.1-5.1,2l-0.7-1.2
		c1.6-1.4,3.7-2.3,6.2-2.3c5,0,6.7,3.7,6.7,6.4c0,4.6-3.4,8.3-9.5,14l-1.7,1.7v0.1h11.9v1.5H260.8z"/>
	<path class="st5" d="M294,417c0,8.4-3.1,12.4-7.9,12.4c-3.8,0-7.3-3.6-7.4-11.9c0-8.5,3.9-12.2,7.9-12.2
		C290.8,405.3,294,409,294,417z M280.5,417.5c0,6.5,2.3,10.5,5.8,10.5c4,0,5.9-4.4,5.9-10.8c0-6.1-1.7-10.5-5.8-10.5
		C283,406.7,280.5,410.6,280.5,417.5z"/>
	<path class="st5" d="M304.1,407.5L304.1,407.5l-4,2.2l-0.4-1.4l4.6-2.6h1.6V429h-1.7V407.5z"/>
	<path class="st5" d="M328.6,407.2h-9.1l-1.2,7.5c0.6-0.1,1.1-0.2,2.2-0.2c1.6,0,3.1,0.3,4.5,1c1.9,0.9,3.8,3,3.8,6.1
		c0,4.7-3.7,7.8-8.1,7.8c-2.5,0-4.5-0.8-5.6-1.5l0.7-1.4c0.9,0.6,2.8,1.4,5,1.4c3.5,0,6.3-2.5,6.2-6c0-3.4-2.2-5.9-7-5.9
		c-1.5,0-2.6,0.1-3.4,0.3l1.6-10.6h10.5V407.2z"/>
	<path class="st5" d="M359.8,428.2c-1.3,0.6-3.7,1.2-6.8,1.2c-6.1,0-11.9-3.7-11.9-12.3c0-7.2,4.8-12.6,12.7-12.6
		c3.2,0,5,0.7,5.8,1.1l-0.6,1.4c-1.3-0.6-3.1-1-5.2-1c-6.8,0-10.9,4.2-10.9,11.2c0,6.6,3.9,10.8,10.6,10.8c2.1,0,4.2-0.4,5.7-1.1
		L359.8,428.2z"/>
	<path class="st5" d="M364,420.3c0,5.5,3.1,7.7,6.8,7.7c2.6,0,4-0.5,5-1l0.5,1.3c-0.7,0.4-2.5,1.1-5.6,1.1c-5.1,0-8.3-3.6-8.3-8.6
		c0-5.7,3.4-9.3,8-9.3c5.8,0,7,5.3,7,7.8c0,0.5,0,0.8-0.1,1.1H364z M375.4,418.9c0-2.4-1-6.1-5.3-6.1c-3.9,0-5.6,3.4-6,6.1H375.4z"
		/>
	<path class="st5" d="M381.8,417c0-1.7-0.1-3.5-0.1-5.2h1.6l0.1,3.5h0.1c0.8-2.2,2.6-3.9,5.1-3.9c0.3,0,0.5,0,0.7,0.1v1.6
		c-0.3-0.1-0.5-0.1-0.9-0.1c-2.4,0-4.2,2.1-4.7,4.8c-0.1,0.5-0.1,1.1-0.1,1.6v9.5h-1.8V417z"/>
	<path class="st5" d="M396.2,406.8v5h5.1v1.4h-5.1v11.2c0,2.2,0.7,3.6,2.6,3.6c0.9,0,1.6-0.1,2-0.3l0.2,1.3
		c-0.6,0.2-1.4,0.4-2.5,0.4c-1.3,0-2.4-0.4-3.1-1.2c-0.8-0.9-1.1-2.3-1.1-4.1v-10.9h-3v-1.4h3v-4.4L396.2,406.8z"/>
	<path class="st5" d="M407.5,406.9c0,0.8-0.5,1.5-1.5,1.5c-0.8,0-1.4-0.7-1.4-1.5c0-0.8,0.6-1.5,1.4-1.5
		C407,405.4,407.5,406.1,407.5,406.9z M405.2,429v-17.2h1.8V429H405.2z"/>
	<path class="st5" d="M413.1,429v-15.8h-2.6v-1.4h2.6v-1.1c0-4.4,2.1-7.5,6.8-7.5c1.5,0,3.3,0.6,4.1,1.2l-0.8,1.3
		c-0.8-0.6-2.1-1.1-3.6-1.1c-3.7,0-4.8,2.9-4.8,6.2v1H425V429h-1.8v-15.8h-8.3V429H413.1z"/>
	<path class="st5" d="M431.2,420.3c0,5.5,3.1,7.7,6.8,7.7c2.6,0,4-0.5,5-1l0.5,1.3c-0.7,0.4-2.5,1.1-5.6,1.1c-5.1,0-8.3-3.6-8.3-8.6
		c0-5.7,3.4-9.3,8-9.3c5.8,0,7,5.3,7,7.8c0,0.5,0,0.8-0.1,1.1H431.2z M442.6,418.9c0-2.4-1-6.1-5.3-6.1c-3.9,0-5.6,3.4-6,6.1H442.6z
		"/>
	<path class="st5" d="M463.2,403.6V425c0,1.3,0.1,2.8,0.1,4h-1.6l-0.1-3.3h-0.1c-0.9,1.9-3,3.7-6.4,3.7c-4.4,0-7.7-3.6-7.7-8.7
		c0-5.7,3.6-9.3,8-9.3c3.1,0,5,1.5,5.8,3h0.1v-10.9H463.2z M461.5,418.6c0-0.5-0.1-1.1-0.2-1.6c-0.6-2.3-2.7-4.2-5.6-4.2
		c-3.9,0-6.3,3.3-6.3,7.7c0,3.9,2,7.5,6.3,7.5c2.5,0,4.9-1.6,5.7-4.5c0.1-0.4,0.2-0.9,0.2-1.4V418.6z"/>
	<path class="st5" d="M497.9,416.7c0,8.5-5.4,12.7-11.2,12.7c-6.2,0-10.9-4.7-10.9-12.2c0-7.9,5-12.7,11.2-12.7
		C493.3,404.5,497.9,409.2,497.9,416.7z M477.6,417.1c0,5.4,3.3,10.9,9.2,10.9c6,0,9.3-5.2,9.3-11.2c0-5.1-2.9-10.9-9.2-10.9
		C480.6,405.9,477.6,411.5,477.6,417.1z"/>
	<path class="st5" d="M502.3,417c0-1.7-0.1-3.5-0.1-5.2h1.6l0.1,3.5h0.1c0.8-2.2,2.6-3.9,5.1-3.9c0.3,0,0.5,0,0.7,0.1v1.6
		c-0.3-0.1-0.5-0.1-0.9-0.1c-2.4,0-4.2,2.1-4.7,4.8c-0.1,0.5-0.1,1.1-0.1,1.6v9.5h-1.8V417z"/>
	<path class="st5" d="M527.4,411.8c-0.1,1.3-0.1,2.6-0.1,4.4v10.3c0,4.4-0.9,6.6-2.4,8c-1.6,1.5-4,2-6,2c-2,0-4.3-0.5-5.7-1.5
		l0.6-1.4c1.2,0.8,3,1.4,5.3,1.4c3.7,0,6.5-1.9,6.5-7v-2.4h-0.1c-0.9,1.7-3,3.3-6.2,3.3c-4.5,0-7.7-3.8-7.7-8.4c0-6,4.1-9.2,8-9.2
		c3.5,0,5.3,1.9,6,3.3h0.1l0.1-2.9H527.4z M525.4,418.4c0-0.6-0.1-1.2-0.2-1.7c-0.7-2.1-2.6-3.9-5.6-3.9c-3.8,0-6.4,3-6.4,7.6
		c0,3.9,2.1,7.2,6.3,7.2c2.4,0,4.6-1.4,5.5-3.9c0.2-0.6,0.3-1.2,0.3-1.8V418.4z"/>
	<path class="st5" d="M542.9,429l-0.3-2.5h-0.1c-0.9,1.3-2.9,2.9-5.7,2.9c-3.6,0-5.3-2.4-5.3-4.7c0-4,3.6-6.4,10.9-6.3v-0.5
		c0-1.7-0.3-5.1-4.6-5.1c-1.6,0-3.2,0.4-4.5,1.3l-0.6-1.2c1.6-1.1,3.6-1.5,5.2-1.5c5.2,0,6.1,3.7,6.1,6.8v6.7c0,1.4,0.1,2.8,0.3,4.1
		H542.9z M542.5,419.8c-3.9-0.1-9,0.5-9,4.6c0,2.5,1.7,3.6,3.6,3.6c3,0,4.7-1.8,5.3-3.5c0.1-0.4,0.2-0.7,0.2-1V419.8z"/>
	<path class="st5" d="M550.1,415.9c0-1.6-0.1-2.8-0.1-4.1h1.6l0.1,3.1h0.1c1-1.9,3.2-3.5,6.1-3.5c1.7,0,6.2,0.8,6.2,7.3V429h-1.8
		v-10.2c0-3.1-1.3-6-4.9-6c-2.5,0-4.7,1.7-5.4,4c-0.1,0.4-0.2,1-0.2,1.5V429h-1.8V415.9z"/>
	<path class="st5" d="M572.4,406.9c0,0.8-0.5,1.5-1.5,1.5c-0.8,0-1.4-0.7-1.4-1.5c0-0.8,0.6-1.5,1.4-1.5
		C571.8,405.4,572.4,406.1,572.4,406.9z M570,429v-17.2h1.8V429H570z"/>
	<path class="st5" d="M575.4,428l9.6-12.2c0.7-0.8,1.3-1.6,2-2.5v-0.1h-10.9v-1.4h13l0,1.2l-9.6,12.2c-0.6,0.8-1.2,1.6-1.9,2.4v0.1
		h11.6v1.4h-13.9V428z"/>
	<path class="st5" d="M602.5,429l-0.3-2.5h-0.1c-0.9,1.3-2.9,2.9-5.7,2.9c-3.6,0-5.3-2.4-5.3-4.7c0-4,3.6-6.4,10.9-6.3v-0.5
		c0-1.7-0.3-5.1-4.6-5.1c-1.6,0-3.2,0.4-4.5,1.3l-0.6-1.2c1.6-1.1,3.6-1.5,5.2-1.5c5.2,0,6.1,3.7,6.1,6.8v6.7c0,1.4,0.1,2.8,0.3,4.1
		H602.5z M602.1,419.8c-3.9-0.1-9,0.5-9,4.6c0,2.5,1.7,3.6,3.6,3.6c3,0,4.7-1.8,5.3-3.5c0.1-0.4,0.2-0.7,0.2-1V419.8z"/>
	<path class="st5" d="M612.1,406.8v5h5.1v1.4h-5.1v11.2c0,2.2,0.7,3.6,2.6,3.6c0.9,0,1.6-0.1,2-0.3l0.2,1.3
		c-0.6,0.2-1.4,0.4-2.5,0.4c-1.3,0-2.4-0.4-3.1-1.2c-0.8-0.9-1.1-2.3-1.1-4.1v-10.9h-3v-1.4h3v-4.4L612.1,406.8z"/>
	<path class="st5" d="M623.4,406.9c0,0.8-0.5,1.5-1.5,1.5c-0.8,0-1.4-0.7-1.4-1.5c0-0.8,0.6-1.5,1.4-1.5
		C622.8,405.4,623.4,406.1,623.4,406.9z M621.1,429v-17.2h1.8V429H621.1z"/>
	<path class="st5" d="M644.1,420.3c0,6.4-4.6,9.2-8.5,9.2c-4.6,0-8.2-3.5-8.2-8.9c0-5.9,4-9.1,8.4-9.1
		C640.8,411.4,644.1,415,644.1,420.3z M629.2,420.5c0,4.3,2.8,7.5,6.5,7.5c3.7,0,6.6-3.3,6.6-7.7c0-3.1-1.8-7.5-6.5-7.5
		C631.3,412.8,629.2,416.8,629.2,420.5z"/>
	<path class="st5" d="M648.7,415.9c0-1.6-0.1-2.8-0.1-4.1h1.6l0.1,3.1h0.1c1-1.9,3.2-3.5,6.1-3.5c1.7,0,6.2,0.8,6.2,7.3V429H661
		v-10.2c0-3.1-1.3-6-4.9-6c-2.5,0-4.7,1.7-5.4,4c-0.1,0.4-0.2,1-0.2,1.5V429h-1.8V415.9z"/>
</g>
</svg>
