<svg width="149" height="49" viewBox="0 0 149 49" fill="none" xmlns="http://www.w3.org/2000/svg">
<path d="M128 20.9121H133.922C137.967 20.9121 141.277 21.5057 144.495 24.2761C147.621 27.0464 149 30.8061 149 34.9616C149 39.0181 147.529 42.6789 144.587 45.3503C141.369 48.3185 138.151 48.9121 133.922 48.9121H128V35.4121V20.9121ZM134 45.9121C137.31 45.9121 140.082 45.5482 142.564 43.1736C144.771 40.9969 145.966 38.1276 145.966 34.9616C145.966 31.7955 144.771 28.7283 142.472 26.5517C139.99 24.2761 137.231 23.8803 134.105 23.8803H131.899V46.0429L134 45.9121Z" fill="white"/>
<path d="M107.02 0H111.75C111.548 0.333333 111.345 0.666667 111.168 1L111.421 0.481482C109.853 0.444445 108.285 0.333333 106.716 0.555556C106.792 0.407407 106.944 0.148148 107.02 0Z" fill="white"/>
<path d="M106.906 0.0903198C108.52 -0.0586437 110.135 0.0158381 111.75 0.0406653L111.489 0.388247C102.296 11.8833 93.1286 23.3535 83.9351 34.7988C88.1021 39.5408 92.2691 44.2828 96.4361 49C94.561 49 92.7119 49 90.8367 49C87.0864 44.6304 83.284 40.2856 79.5337 35.916C79.5337 35.2457 79.5337 34.5754 79.5337 33.8802C86.0186 25.861 92.5296 17.8666 99.0145 9.84743C101.645 6.59506 104.353 3.41717 106.906 0.0903198Z" fill="white"/>
<path d="M7.81764 22.3849C11.2299 20.783 15.3042 20.6131 18.9201 21.6567C22.1287 22.5548 25.0571 24.5936 26.6613 27.4334C27.3234 28.5499 27.6799 29.7878 28.0364 31.0257C26.534 31.0257 25.0571 31.0257 23.5547 31.0257C23.0708 29.3994 22.1287 27.8461 20.6517 26.8752C18.5382 25.3946 15.8389 24.8849 13.2416 25.0063C10.7715 25.2732 8.37785 26.3412 6.74813 28.1616C4.60912 30.4674 3.76879 33.7198 4.30355 36.7538C4.78737 40.2004 7.28288 43.4043 10.7715 44.5693C12.2484 45.1518 13.8782 45.1276 15.457 45.0548C18.8947 44.812 22.0523 42.6276 23.3509 39.5936C19.7859 39.5693 16.2209 39.5936 12.6559 39.5936C12.6304 38.2829 12.6559 36.948 12.6304 35.6373C17.8252 35.6373 22.9944 35.6373 28.1892 35.6373C27.9855 37.4091 27.96 39.2538 27.1961 40.9043C25.4645 44.7635 21.6448 47.579 17.4177 48.5984C14.7694 49.278 11.9174 49.0596 9.34551 48.2101C6.00966 47.1421 3.18311 44.7635 1.62978 41.7538C-0.560161 37.579 -0.534699 32.4092 1.65524 28.2344C2.95393 25.7101 5.16934 23.6228 7.81764 22.3849Z" fill="white"/>
<path d="M30.2026 21C36.2345 21 42.2663 21 48.2981 21C48.2981 22.3322 48.2981 23.689 48.2981 25.0211C43.7025 25.0211 39.1068 25.0211 34.5111 25.0211C34.5111 27.6361 34.5111 30.2758 34.5111 32.8907C39.0023 32.8907 43.5197 32.8907 48.0109 32.8907C48.0109 34.2722 48.0109 35.6537 48.0109 37.0352C43.5197 37.0352 39.0284 37.0352 34.5111 37.0352C34.5111 39.6749 34.5111 42.3145 34.5111 44.9542C39.1068 44.9789 43.7286 44.9542 48.3243 44.9542C48.3243 46.2863 48.3243 47.6432 48.3243 49C42.2924 49 36.2606 49 30.2026 49C30.2026 39.6749 30.2287 30.3498 30.2026 21Z" fill="white"/>
<path d="M53.3579 21C59.3897 21 65.4216 21 71.4534 21C71.4534 22.3322 71.4534 23.689 71.4534 25.0211C66.8577 25.0211 62.2621 25.0211 57.6664 25.0211C57.6664 27.6361 57.6664 30.2758 57.6664 32.8907C62.1576 32.8907 66.675 32.8907 71.1662 32.8907C71.1662 34.2722 71.1662 35.6537 71.1662 37.0352C66.675 37.0352 62.1576 37.0352 57.6664 37.0352C57.6664 39.6749 57.6664 42.3145 57.6664 44.9542C62.2621 44.9542 66.8838 44.9542 71.4795 44.9542C71.4795 46.311 71.4795 47.6432 71.4795 49C65.4477 49 59.3897 49 53.3579 49C53.3579 39.6749 53.3579 30.3498 53.3579 21Z" fill="white"/>
<path d="M74.5 21C75.8341 21 77.1929 21 78.527 21C78.527 30.3251 78.527 39.6749 78.527 49C77.1929 49 75.8341 49 74.5 49C74.5 39.6749 74.5 30.3498 74.5 21Z" fill="white"/>
<path d="M119.804 21C121.138 21 122.497 21 123.831 21C123.831 30.3251 123.831 39.6749 123.831 49C122.497 49 121.138 49 119.804 49C119.804 39.6749 119.804 30.3498 119.804 21Z" fill="white"/>
<path d="M115.082 33.2832C115.058 34.6082 115.035 35.9576 115.011 37.2826C109.566 37.1882 104.107 37.0935 98.6621 36.9991C98.6854 35.6742 98.7091 34.3247 98.7324 32.9997C104.177 33.0941 109.622 33.1886 115.082 33.2832Z" fill="white"/>
</svg>
