<svg width="142" height="80" viewBox="0 0 142 80" fill="none" xmlns="http://www.w3.org/2000/svg">
<path d="M139 61.0635H14.2861V69.0635H139V61.0635Z" fill="#DEFFEF"/>
<path d="M120.109 1H124.008C123.841 1.16327 123.674 1.32653 123.528 1.4898L123.737 1.23583C122.444 1.21769 121.151 1.16327 119.858 1.27211C119.921 1.19955 120.046 1.07256 120.109 1Z" fill="#008242"/>
<path d="M119.879 1.27205C121.172 1.16321 122.465 1.21763 123.758 1.23577L123.549 1.48974C116.188 9.88883 108.849 18.2698 101.488 26.6326C104.824 30.0974 108.161 33.5623 111.497 37.009C109.996 37.009 108.515 37.009 107.014 37.009C104.011 33.8163 100.967 30.6417 97.9641 27.4489C97.9641 26.9591 97.9641 26.4693 97.9641 25.9614C103.156 20.102 108.369 14.2607 113.561 8.4013C115.667 6.02488 117.836 3.70289 119.879 1.27205Z" fill="#008242"/>
<path d="M40.059 17.3085C42.8531 16.1112 46.1894 15.9842 49.1503 16.7643C51.7776 17.4355 54.1756 18.9593 55.4892 21.0817C56.0314 21.9162 56.3233 22.8414 56.6152 23.7666C55.385 23.7666 54.1756 23.7666 52.9453 23.7666C52.5491 22.5511 51.7776 21.3901 50.5682 20.6645C48.8375 19.5579 46.6273 19.177 44.5004 19.2677C42.4778 19.4672 40.5177 20.2654 39.1832 21.626C37.4317 23.3493 36.7436 25.7802 37.1815 28.0477C37.5776 30.6237 39.6211 33.0183 42.4778 33.889C43.6872 34.3244 45.0217 34.3062 46.3145 34.2518C49.1295 34.0704 51.7151 32.4378 52.7785 30.1702C49.8593 30.152 46.94 30.1702 44.0208 30.1702C44 29.1906 44.0208 28.1929 44 27.2133C48.2537 27.2133 52.4866 27.2133 56.7403 27.2133C56.5735 28.5375 56.5527 29.9162 55.9271 31.1498C54.5092 34.0341 51.3815 36.1384 47.9201 36.9003C45.7515 37.4083 43.4161 37.245 41.3101 36.6101C38.5785 35.8119 36.264 34.0341 34.992 31.7847C33.1988 28.6645 33.2196 24.8006 35.0129 21.6804C36.0763 19.7938 37.8904 18.2337 40.059 17.3085Z" fill="#008242"/>
<path d="M58.4084 16.4199C63.2252 16.4199 68.0419 16.4199 72.8587 16.4199C72.8587 17.3995 72.8587 18.3972 72.8587 19.3768C69.1888 19.3768 65.5189 19.3768 61.849 19.3768C61.849 21.2997 61.849 23.2408 61.849 25.1637C65.4355 25.1637 69.0428 25.1637 72.6293 25.1637C72.6293 26.1796 72.6293 27.1954 72.6293 28.2113C69.0428 28.2113 65.4563 28.2113 61.849 28.2113C61.849 30.1523 61.849 32.0934 61.849 34.0344C65.5189 34.0526 69.2096 34.0344 72.8795 34.0344C72.8795 35.014 72.8795 36.0118 72.8795 37.0095C68.0628 37.0095 63.246 37.0095 58.4084 37.0095C58.4084 30.1523 58.4293 23.2952 58.4084 16.4199Z" fill="#008242"/>
<path d="M77.0498 16.4199C81.8665 16.4199 86.6833 16.4199 91.5 16.4199C91.5 17.3995 91.5 18.3972 91.5 19.3768C87.8301 19.3768 84.1602 19.3768 80.4903 19.3768C80.4903 21.2997 80.4903 23.2408 80.4903 25.1637C84.0768 25.1637 87.6842 25.1637 91.2707 25.1637C91.2707 26.1796 91.2707 27.1954 91.2707 28.2113C87.6842 28.2113 84.0768 28.2113 80.4903 28.2113C80.4903 30.1523 80.4903 32.0934 80.4903 34.0344C84.1602 34.0344 87.851 34.0344 91.5209 34.0344C91.5209 35.0322 91.5209 36.0118 91.5209 37.0095C86.7041 37.0095 81.8665 37.0095 77.0498 37.0095C77.0498 30.1523 77.0498 23.2952 77.0498 16.4199Z" fill="#008242"/>
<path d="M93.9189 16.4199C95.0449 16.4199 96.1918 16.4199 97.3178 16.4199C97.3178 23.2771 97.3178 30.1523 97.3178 37.0095C96.1918 37.0095 95.0449 37.0095 93.9189 37.0095C93.9189 30.1523 93.9189 23.2952 93.9189 16.4199Z" fill="#008242"/>
<path d="M3.79785 19.5762C5.0281 19.5762 6.2375 19.5762 7.46775 19.5762C10.4078 27.4855 13.4313 35.3948 16.3923 43.3041C17.7685 46.8596 19.0404 50.4515 20.4792 53.9889C21.1048 52.193 21.918 50.4333 22.5852 48.6555C23.1899 47.2224 23.7112 45.753 24.3785 44.3199C25.2542 44.3381 26.13 44.3381 27.0058 44.3199C28.3403 47.4583 29.6122 50.6329 30.8425 53.7893C30.905 53.753 31.0302 53.6805 31.0927 53.6623C32.886 48.7825 34.8043 43.9571 36.6601 39.0954C37.8695 39.0954 39.0581 39.0954 40.2675 39.0954C37.5776 46.007 34.9503 52.9186 32.2604 59.8301C31.468 59.8301 30.6757 59.8301 29.8833 59.8301C28.4446 56.5286 27.11 53.2088 25.6713 49.9072C24.2951 53.2088 22.9606 56.5286 21.5426 59.8301C20.7503 59.812 19.9788 59.812 19.1864 59.8301C14.3697 47.3676 9.61547 34.8687 4.81958 22.4061C4.48596 21.4628 4.06892 20.5376 3.79785 19.5762Z" fill="#008242"/>
<path d="M76.758 39.0949C78.6972 39.0949 80.6572 39.6754 82.0751 40.8364C84.8693 43.1221 85.1403 47.3489 82.6381 49.8886C81.533 51.0496 79.9066 51.7026 78.2384 52.011C80.7406 54.5688 83.2011 57.1448 85.7033 59.7208C84.2229 59.7208 82.7424 59.7208 81.2619 59.7208C78.5095 56.8364 75.7362 53.9339 72.9629 51.0496C72.3999 50.5779 72.7127 49.8523 72.6502 49.2537C74.0264 49.2537 75.3817 49.2537 76.758 49.2537C77.9048 49.2537 79.0725 48.8908 79.8649 48.1471C81.1368 46.9498 81.2828 44.9906 80.2402 43.6482C79.4478 42.5961 77.9674 42.0881 76.5703 42.1063C74.8396 42.1063 73.1298 42.1063 71.3991 42.1063C71.3991 47.9838 71.3991 53.8432 71.3991 59.7208C70.2731 59.7208 69.1262 59.7208 68.0002 59.7208C68.0002 52.8455 68.0211 45.9883 68.0002 39.1131C70.9195 39.0768 73.8387 39.0768 76.758 39.0949Z" fill="#008242"/>
<path d="M88.5392 39.0947C89.6652 39.0947 90.7911 39.0947 91.9171 39.0947C91.9171 45.9519 91.9171 52.8271 91.9171 59.6843C90.7911 59.6843 89.6443 59.6843 88.5183 59.6843C88.5392 52.8271 88.5392 45.97 88.5392 39.0947Z" fill="#008242"/>
<path d="M92.5427 48.6918C95.2951 45.499 98.0893 42.3244 100.821 39.1135C102.26 39.0954 103.719 39.1135 105.158 39.1135C102.114 42.5058 99.1318 45.9344 96.0875 49.3267C99.4238 52.7915 102.718 56.2564 106.096 59.685C104.866 59.7031 103.636 59.685 102.406 59.7031C102.051 59.685 101.592 59.7757 101.363 59.4491C98.5063 56.4559 95.6913 53.4446 92.8138 50.4514C92.3133 49.9797 92.6261 49.2723 92.5427 48.6918Z" fill="#008242"/>
<path d="M108.056 39.1135C109.453 39.0954 110.851 39.1135 112.248 39.1135C114.395 41.6714 116.564 44.2473 118.691 46.8233C120.922 44.2836 123.028 41.6714 125.217 39.1135C126.614 39.1135 127.991 39.1135 129.388 39.1135C126.948 42.0523 124.508 44.9911 122.069 47.9299C121.673 48.4378 121.151 48.9095 120.838 49.4718C121.777 50.7779 122.903 51.9571 123.925 53.2269C128.303 58.524 132.786 63.7485 137.165 69.0455C135.831 69.0818 134.496 69.0455 133.183 69.0636C128.387 63.4582 123.695 57.7983 118.878 52.1929C118.732 51.9752 118.482 52.2655 118.399 52.3743C116.355 54.8051 114.374 57.2541 112.31 59.6487C110.913 59.7575 109.495 59.6668 108.077 59.685C110.538 56.7462 112.998 53.8074 115.459 50.8505C115.834 50.3788 116.272 49.9435 116.585 49.4355C113.832 45.9707 110.913 42.5602 108.056 39.1135Z" fill="#008242"/>
<path d="M52.4448 38.4424C45.7097 38.4424 40.2466 43.1952 40.2466 49.0546C40.2466 54.914 45.7097 59.6669 52.4448 59.6669C59.1799 59.6669 64.6431 54.914 64.6431 49.0546C64.6431 43.1952 59.1799 38.4424 52.4448 38.4424ZM52.4865 56.7825C47.5655 56.7825 43.562 53.2995 43.562 49.0183C43.562 44.7372 47.5447 41.2542 52.4865 41.2542C57.4075 41.2542 61.411 44.719 61.411 49.0183C61.411 53.2995 57.4075 56.7825 52.4865 56.7825Z" fill="#008242"/>
<!-- <path d="M16.1419 75.2201L15.4954 76.7621H15.1201L17.0176 72.3721H17.3721L19.2488 76.7621H18.8734L18.2062 75.2201H16.1419ZM18.1019 74.948L17.4555 73.4786C17.3304 73.1703 17.2678 72.9526 17.1844 72.6986H17.1636C17.0802 72.9526 16.9968 73.1884 16.8925 73.4605L16.2461 74.948H18.1019Z" fill="#008242" stroke="#008242"/> -->
<!-- <path d="M20.0411 74.3671C20.0411 74.0769 20.0203 73.8592 20.0203 73.6233H20.3539L20.3747 74.1857H20.3956C20.6041 73.841 21.0628 73.5508 21.6675 73.5508C22.022 73.5508 22.9604 73.6959 22.9604 74.875V76.7435H22.585V74.8932C22.585 74.3308 22.3139 73.8047 21.5633 73.8047C21.042 73.8047 20.6041 74.1131 20.4373 74.5304C20.4164 74.6029 20.3956 74.7118 20.3956 74.8025V76.7435H20.0203V74.3671H20.0411Z" fill="#008242" stroke="#008242"/>
<path d="M26.2757 72.3717V76.7435H25.9004V72.3535H26.2757V72.3717Z" fill="#008242" stroke="#008242"/> -->
<!-- <path d="M27.3808 76.2716C27.6727 76.4349 28.0898 76.5619 28.5277 76.5619C29.2992 76.5619 29.7788 76.1809 29.7788 75.6548C29.7788 75.165 29.466 74.8748 28.7153 74.6208C27.8813 74.3669 27.36 74.004 27.36 73.4054C27.36 72.7705 27.9855 72.2988 28.8821 72.2988C29.3826 72.2988 29.7371 72.4077 29.9247 72.4984L29.7996 72.7523C29.6537 72.6616 29.32 72.5528 28.8821 72.5528C28.0481 72.5528 27.7562 73.0063 27.7562 73.351C27.7562 73.8408 28.0898 74.0947 28.8404 74.3306C29.6954 74.6208 30.1541 74.9474 30.1541 75.6004C30.1541 76.2353 29.612 76.7977 28.486 76.7977C28.0272 76.7977 27.5059 76.6707 27.2349 76.5074L27.3808 76.2716Z" fill="#008242" stroke="#008242"/>
<path d="M35.4298 74.512C35.4298 76.0539 34.3038 76.8158 33.0944 76.8158C31.8016 76.8158 30.8215 75.9632 30.8215 74.6027C30.8215 73.1696 31.8641 72.2988 33.1569 72.2988C34.4706 72.2988 35.4298 73.1514 35.4298 74.512ZM31.176 74.5845C31.176 75.5641 31.8641 76.5619 33.0944 76.5619C34.3455 76.5619 35.0336 75.6186 35.0336 74.5301C35.0336 73.6049 34.4289 72.5528 33.1152 72.5528C31.8016 72.5528 31.176 73.5687 31.176 74.5845Z" fill="#008242" stroke="#008242"/>
<path d="M38.1821 76.5441C38.328 76.5623 38.5157 76.5441 38.7451 76.5078C39.1621 76.4534 39.5374 76.2901 39.8502 76.018C40.1838 75.7096 40.4341 75.2924 40.5383 74.6756H40.5175C40.2047 75.0203 39.7459 75.2198 39.2247 75.2198C38.2863 75.2198 37.7859 74.6031 37.7859 73.9319C37.7859 73.1518 38.4114 72.4443 39.3915 72.4443C40.2464 72.4443 40.9136 73.0611 40.9136 74.204C40.9136 75.1654 40.5175 75.8185 40.0587 76.1994C39.7251 76.4897 39.2664 76.6892 38.8702 76.7437C38.5991 76.7799 38.3697 76.7981 38.2029 76.7981V76.5441H38.1821ZM38.1404 73.9137C38.1404 74.5486 38.5991 74.9477 39.2664 74.9477C39.8085 74.9477 40.2464 74.7119 40.4549 74.4035C40.4758 74.3491 40.5175 74.2947 40.5175 74.2221C40.5175 73.3332 40.1213 72.7164 39.3081 72.7164C38.62 72.7164 38.1404 73.2244 38.1404 73.9137Z" fill="#008242" stroke="#008242"/>
<path d="M44.6879 74.5668C44.6879 76.0906 44.0415 76.8162 43.0406 76.8162C42.2482 76.8162 41.5184 76.1632 41.4976 74.6575C41.4976 73.1155 42.3108 72.4443 43.1448 72.4443C44.0206 72.4443 44.6879 73.1155 44.6879 74.5668ZM41.8729 74.6575C41.8729 75.8366 42.3525 76.5623 43.0823 76.5623C43.9164 76.5623 44.3125 75.7641 44.3125 74.6031C44.3125 73.4965 43.9581 72.6983 43.1031 72.6983C42.3942 72.6983 41.8729 73.4058 41.8729 74.6575Z" fill="#008242" stroke="#008242"/>
<path d="M48.462 74.5668C48.462 76.0906 47.8156 76.8162 46.8148 76.8162C46.0224 76.8162 45.2926 76.1632 45.2717 74.6575C45.2717 73.1155 46.0849 72.4443 46.919 72.4443C47.8156 72.4443 48.462 73.1155 48.462 74.5668ZM45.6471 74.6575C45.6471 75.8366 46.1266 76.5623 46.8565 76.5623C47.6905 76.5623 48.0867 75.7641 48.0867 74.6031C48.0867 73.4965 47.7322 72.6983 46.8773 72.6983C46.1684 72.6983 45.6471 73.4058 45.6471 74.6575Z" fill="#008242" stroke="#008242"/>
<path d="M50.5889 72.8431L49.7548 73.2422L49.6714 72.9883L50.6306 72.5166H50.9642V76.7434H50.6097V72.8431H50.5889Z" fill="#008242" stroke="#008242"/>
<path d="M54.6133 74.8213V75.0934H52.7783V74.8213H54.6133Z" fill="#008242" stroke="#008242"/>
<path d="M55.197 76.7441V76.5627L55.6558 76.1636C57.0528 75.0207 57.6784 74.4221 57.6784 73.6965C57.6784 73.2067 57.4282 72.735 56.5732 72.735C56.0936 72.735 55.7183 72.9345 55.5098 73.0978L55.3638 72.8801C55.6975 72.6262 56.1353 72.4629 56.6566 72.4629C57.6992 72.4629 58.0537 73.1341 58.0537 73.6239C58.0537 74.4584 57.3447 75.1296 56.0728 76.1636L55.7183 76.472V76.4901H58.1997V76.7622H55.197V76.7441Z" fill="#008242" stroke="#008242"/> -->
<!-- <path d="M62.1197 74.5668C62.1197 76.0906 61.4733 76.8162 60.4725 76.8162C59.6801 76.8162 58.9503 76.1632 58.9294 74.6575C58.9294 73.1155 59.7427 72.4443 60.5767 72.4443C61.4525 72.4443 62.1197 73.1155 62.1197 74.5668ZM59.3048 74.6575C59.3048 75.8366 59.7844 76.5623 60.5142 76.5623C61.3482 76.5623 61.7444 75.7641 61.7444 74.6031C61.7444 73.4965 61.3899 72.6983 60.535 72.6983C59.8261 72.6983 59.3048 73.4058 59.3048 74.6575Z" fill="#008242" stroke="#008242"/>
<path d="M64.2258 72.8431L63.3918 73.2422L63.3083 72.9883L64.2675 72.5166H64.6012V76.7434H64.2467V72.8431H64.2258Z" fill="#008242" stroke="#008242"/>
<path d="M69.3345 72.7887H67.437L67.1868 74.1493C67.3119 74.1311 67.4162 74.113 67.6455 74.113C67.9791 74.113 68.2919 74.1674 68.5838 74.2944C68.98 74.4576 69.3762 74.8386 69.3762 75.401C69.3762 76.2536 68.6047 76.8159 67.6872 76.8159C67.1659 76.8159 66.7489 76.6708 66.5195 76.5438L66.6655 76.2898C66.8532 76.3987 67.2493 76.5438 67.7081 76.5438C68.4379 76.5438 69.0217 76.0903 69.0009 75.4554C69.0009 74.8386 68.5421 74.3851 67.5413 74.3851C67.2285 74.3851 66.9991 74.4032 66.8323 74.4395L67.1659 72.5166H69.3554V72.7887H69.3345Z" fill="#008242" stroke="#008242"/>
<path d="M75.8402 76.5982C75.5691 76.707 75.0687 76.8158 74.4223 76.8158C73.1503 76.8158 71.9409 76.1446 71.9409 74.5845C71.9409 73.2784 72.9418 72.2988 74.5891 72.2988C75.2563 72.2988 75.6317 72.4258 75.7985 72.4984L75.6734 72.7523C75.4023 72.6435 75.027 72.5709 74.5891 72.5709C73.1712 72.5709 72.3162 73.3328 72.3162 74.6027C72.3162 75.8 73.1295 76.5619 74.5265 76.5619C74.9644 76.5619 75.4023 76.4893 75.7151 76.3623L75.8402 76.5982Z" fill="#008242" stroke="#008242"/>
<path d="M76.716 75.1657C76.716 76.1634 77.3624 76.5625 78.1339 76.5625C78.676 76.5625 78.9679 76.4718 79.1764 76.3811L79.2807 76.617C79.1347 76.6895 78.7594 76.8165 78.113 76.8165C77.0496 76.8165 76.3823 76.1634 76.3823 75.2564C76.3823 74.2224 77.0913 73.5693 78.0505 73.5693C79.2599 73.5693 79.5101 74.5308 79.5101 74.9843C79.5101 75.075 79.5101 75.1294 79.4892 75.1838H76.716V75.1657ZM79.093 74.9117C79.093 74.4764 78.8845 73.8052 77.9879 73.8052C77.1747 73.8052 76.8202 74.4219 76.7368 74.9117H79.093Z" fill="#008242" stroke="#008242"/>
<path d="M80.4276 74.5667C80.4276 74.2583 80.4067 73.9317 80.4067 73.6233H80.7404L80.7612 74.2583H80.7821C80.9489 73.8592 81.3242 73.5508 81.8455 73.5508C81.9081 73.5508 81.9498 73.5508 81.9915 73.5689V73.8592C81.9289 73.841 81.8872 73.841 81.8038 73.841C81.3034 73.841 80.928 74.222 80.8238 74.7118C80.8029 74.8025 80.8029 74.9113 80.8029 75.002V76.7254H80.4276V74.5667Z" fill="#008242" stroke="#008242"/>
<path d="M83.4302 72.7168V73.6238H84.4936V73.8778H83.4302V75.9095C83.4302 76.3086 83.5761 76.5626 83.9723 76.5626C84.16 76.5626 84.306 76.5445 84.3894 76.5082L84.4311 76.744C84.306 76.7803 84.1391 76.8166 83.9098 76.8166C83.6387 76.8166 83.4093 76.744 83.2634 76.5989C83.0966 76.4356 83.034 76.1817 83.034 75.8551V73.8778H82.4084V73.6238H83.034V72.8256L83.4302 72.7168Z" fill="#008242" stroke="#008242"/> -->
<!-- <path d="M85.7866 72.735C85.7866 72.8801 85.6823 73.0071 85.4738 73.0071C85.307 73.0071 85.1819 72.8801 85.1819 72.735C85.1819 72.5899 85.307 72.4629 85.4738 72.4629C85.6823 72.4629 85.7866 72.5899 85.7866 72.735ZM85.307 76.7441V73.6239H85.6823V76.7441H85.307Z" fill="#008242" stroke="#008242"/>
<path d="M86.9543 76.7437V73.8775H86.4121V73.6236H86.9543V73.424C86.9543 72.6258 87.3921 72.0635 88.3722 72.0635C88.6849 72.0635 89.0603 72.1723 89.2271 72.2812L89.0603 72.517C88.8935 72.4081 88.6224 72.3174 88.3096 72.3174C87.5381 72.3174 87.3087 72.8435 87.3087 73.4422V73.6236H89.4356V76.7437H89.0603V73.8775H87.3296V76.7437H86.9543Z" fill="#008242" stroke="#008242"/>
<path d="M90.7284 75.1657C90.7284 76.1634 91.3748 76.5625 92.1463 76.5625C92.6885 76.5625 92.9804 76.4718 93.1889 76.3811L93.2932 76.617C93.1472 76.6895 92.7719 76.8165 92.1255 76.8165C91.062 76.8165 90.3948 76.1634 90.3948 75.2564C90.3948 74.2224 91.1037 73.5693 92.0629 73.5693C93.2723 73.5693 93.5225 74.5308 93.5225 74.9843C93.5225 75.075 93.5225 75.1294 93.5017 75.1838H90.7284V75.1657ZM93.1055 74.9117C93.1055 74.4764 92.897 73.8052 92.0004 73.8052C91.1871 73.8052 90.8327 74.4219 90.7493 74.9117H93.1055Z" fill="#008242" stroke="#008242"/>
<path d="M97.401 72.1363V76.0184C97.401 76.2542 97.4219 76.5263 97.4219 76.744H97.0882L97.0674 76.1454H97.0465C96.8589 76.49 96.421 76.8166 95.712 76.8166C94.7946 76.8166 94.1064 76.1635 94.1064 75.2383C94.1064 74.2043 94.8571 73.5513 95.7746 73.5513C96.421 73.5513 96.8172 73.8234 96.984 74.0955H97.0048V72.1182H97.401V72.1363ZM97.0465 74.8574C97.0465 74.7667 97.0257 74.6578 97.0048 74.5671C96.8797 74.1499 96.4418 73.8052 95.8371 73.8052C95.0239 73.8052 94.5235 74.4039 94.5235 75.2021C94.5235 75.9095 94.9405 76.5626 95.8371 76.5626C96.3584 76.5626 96.8589 76.2724 97.0257 75.7463C97.0465 75.6737 97.0674 75.583 97.0674 75.4923V74.8574H97.0465Z" fill="#008242" stroke="#008242"/>
<path d="M104.636 74.512C104.636 76.0539 103.51 76.8158 102.301 76.8158C101.008 76.8158 100.028 75.9632 100.028 74.6027C100.028 73.1696 101.071 72.2988 102.363 72.2988C103.677 72.2988 104.636 73.1514 104.636 74.512ZM100.403 74.5845C100.403 75.5641 101.092 76.5619 102.322 76.5619C103.573 76.5619 104.261 75.6186 104.261 74.5301C104.261 73.6049 103.656 72.5528 102.343 72.5528C101.029 72.5528 100.403 73.5687 100.403 74.5845Z" fill="#008242" stroke="#008242"/>
<path d="M105.554 74.5667C105.554 74.2583 105.533 73.9317 105.533 73.6233H105.867L105.887 74.2583H105.908C106.075 73.8592 106.45 73.5508 106.972 73.5508C107.034 73.5508 107.076 73.5508 107.118 73.5689V73.8592C107.055 73.841 107.013 73.841 106.93 73.841C106.43 73.841 106.054 74.222 105.95 74.7118C105.929 74.8025 105.929 74.9113 105.929 75.002V76.7254H105.554V74.5667Z" fill="#008242" stroke="#008242"/>
<path d="M110.788 73.6239C110.767 73.8597 110.767 74.0956 110.767 74.4221V76.2906C110.767 77.0888 110.579 77.4879 110.266 77.7418C109.933 78.0139 109.432 78.1046 109.015 78.1046C108.598 78.1046 108.119 78.0139 107.827 77.8325L107.952 77.5786C108.202 77.7237 108.577 77.8325 109.057 77.8325C109.829 77.8325 110.412 77.4879 110.412 76.5627V76.1273H110.392C110.204 76.4357 109.766 76.7259 109.099 76.7259C108.16 76.7259 107.493 76.0366 107.493 75.2021C107.493 74.1137 108.348 73.5332 109.161 73.5332C109.891 73.5332 110.266 73.8779 110.412 74.1318H110.433L110.454 73.6058H110.788V73.6239ZM110.371 74.8212C110.371 74.7123 110.35 74.6035 110.329 74.5128C110.183 74.1318 109.787 73.8053 109.161 73.8053C108.369 73.8053 107.827 74.3495 107.827 75.184C107.827 75.8915 108.265 76.4901 109.14 76.4901C109.641 76.4901 110.1 76.2362 110.287 75.7826C110.329 75.6738 110.35 75.565 110.35 75.4561V74.8212H110.371Z" fill="#008242" stroke="#008242"/>
<path d="M114.02 76.7435L113.957 76.29H113.936C113.749 76.5258 113.332 76.8161 112.748 76.8161C111.997 76.8161 111.643 76.3807 111.643 75.9635C111.643 75.2379 112.393 74.8025 113.915 74.8206V74.7299C113.915 74.4215 113.853 73.8047 112.956 73.8047C112.623 73.8047 112.289 73.8773 112.018 74.0406L111.893 73.8229C112.226 73.6233 112.643 73.5508 112.977 73.5508C114.061 73.5508 114.249 74.222 114.249 74.7843V75.9998C114.249 76.2537 114.27 76.5077 114.312 76.7435H114.02ZM113.936 75.0746C113.123 75.0564 112.06 75.1653 112.06 75.9091C112.06 76.3626 112.414 76.5621 112.81 76.5621C113.436 76.5621 113.79 76.2356 113.915 75.9272C113.936 75.8546 113.957 75.8002 113.957 75.7458V75.0746H113.936Z" fill="#008242" stroke="#008242"/>
<path d="M115.521 74.3671C115.521 74.0769 115.5 73.8592 115.5 73.6233H115.834L115.855 74.1857H115.876C116.084 73.841 116.543 73.5508 117.148 73.5508C117.502 73.5508 118.44 73.6959 118.44 74.875V76.7435H118.065V74.8932C118.065 74.3308 117.794 73.8047 117.043 73.8047C116.522 73.8047 116.063 74.1131 115.917 74.5304C115.896 74.6029 115.876 74.7118 115.876 74.8025V76.7435H115.5V74.3671H115.521Z" fill="#008242" stroke="#008242"/>
<path d="M120.171 72.735C120.171 72.8801 120.067 73.0071 119.858 73.0071C119.691 73.0071 119.566 72.8801 119.566 72.735C119.566 72.5899 119.691 72.4629 119.858 72.4629C120.046 72.4629 120.171 72.5899 120.171 72.735ZM119.67 76.7441V73.6239H120.046V76.7441H119.67Z" fill="#008242" stroke="#008242"/>
<path d="M120.796 76.5628L122.798 74.3496C122.944 74.2045 123.069 74.0594 123.215 73.8961V73.878H120.942V73.624H123.653V73.8417L121.651 76.0549C121.526 76.2 121.401 76.3451 121.255 76.4902V76.5084H123.674V76.7623H120.776V76.5628H120.796Z" fill="#008242" stroke="#008242"/>
<path d="M126.447 76.7435L126.385 76.29H126.364C126.176 76.5258 125.759 76.8161 125.175 76.8161C124.425 76.8161 124.07 76.3807 124.07 75.9635C124.07 75.2379 124.821 74.8025 126.343 74.8206V74.7299C126.343 74.4215 126.281 73.8047 125.384 73.8047C125.05 73.8047 124.717 73.8773 124.446 74.0406L124.321 73.8229C124.654 73.6233 125.071 73.5508 125.405 73.5508C126.489 73.5508 126.677 74.222 126.677 74.7843V75.9998C126.677 76.2537 126.698 76.5077 126.739 76.7435H126.447ZM126.364 75.0746C125.551 75.0564 124.487 75.1653 124.487 75.9091C124.487 76.3626 124.842 76.5621 125.238 76.5621C125.864 76.5621 126.218 76.2356 126.343 75.9272C126.364 75.8546 126.385 75.8002 126.385 75.7458V75.0746H126.364Z" fill="#008242" stroke="#008242"/>
<path d="M128.449 72.7168V73.6238H129.512V73.8778H128.449V75.9095C128.449 76.3086 128.595 76.5626 128.991 76.5626C129.179 76.5626 129.325 76.5445 129.408 76.5082L129.45 76.744C129.325 76.7803 129.158 76.8166 128.929 76.8166C128.657 76.8166 128.428 76.744 128.282 76.5989C128.115 76.4356 128.053 76.1817 128.053 75.8551V73.8778H127.427V73.6238H128.053V72.8256L128.449 72.7168Z" fill="#008242" stroke="#008242"/>
<path d="M130.805 72.735C130.805 72.8801 130.701 73.0071 130.493 73.0071C130.326 73.0071 130.201 72.8801 130.201 72.735C130.201 72.5899 130.326 72.4629 130.493 72.4629C130.68 72.4629 130.805 72.5899 130.805 72.735ZM130.326 76.7441V73.6239H130.701V76.7441H130.326Z" fill="#008242" stroke="#008242"/> -->
<!-- <path d="M135.122 75.1651C135.122 76.3261 134.162 76.834 133.349 76.834C132.39 76.834 131.639 76.1991 131.639 75.2195C131.639 74.1492 132.473 73.5687 133.391 73.5687C134.434 73.5506 135.122 74.2036 135.122 75.1651ZM132.015 75.2014C132.015 75.9814 132.599 76.5619 133.37 76.5619C134.142 76.5619 134.746 75.9633 134.746 75.1651C134.746 74.6027 134.371 73.8046 133.391 73.8046C132.453 73.8046 132.015 74.5302 132.015 75.2014Z" fill="#008242" stroke="#008242"/>
<path d="M136.081 74.3671C136.081 74.0769 136.06 73.8592 136.06 73.6233H136.393L136.414 74.1857H136.435C136.644 73.841 137.102 73.5508 137.707 73.5508C138.062 73.5508 139 73.6959 139 74.875V76.7435H138.645V74.8932C138.645 74.3308 138.374 73.8047 137.624 73.8047C137.102 73.8047 136.644 74.1131 136.498 74.5304C136.477 74.6029 136.456 74.7118 136.456 74.8025V76.7435H136.081V74.3671Z" fill="#008242" stroke="#008242"/> -->
<path d="M18.8081 63.0693H19.9549C20.8724 63.0693 21.6231 63.177 22.3529 63.6792C23.0618 64.1815 23.3746 64.8631 23.3746 65.6165C23.3746 66.3519 23.041 67.0156 22.3737 67.4999C21.6439 68.038 20.9141 68.1457 19.9549 68.1457H18.8081V63.0693ZM19.9967 67.6255C20.7473 67.6255 21.3729 67.5358 21.9359 67.1053C22.4363 66.7107 22.7074 66.1905 22.7074 65.6165C22.7074 65.0425 22.4363 64.4864 21.915 64.0918C21.352 63.6792 20.7265 63.6075 20.0175 63.6075H19.5171V67.6255H19.9967Z" fill="#464546"/>
<path d="M26.0437 63.0693H29.2132V63.5895H26.711V65.0963H29.1298V65.6165H26.711V67.6255H29.2132V68.1457H26.0437V63.0693Z" fill="#464546"/>
<path d="M34.9055 64.0557C34.6553 63.697 34.3634 63.4997 33.8421 63.4997C33.3 63.4997 32.8204 63.8226 32.8204 64.2889C32.8204 64.7194 33.3625 64.9347 33.7795 65.0782L34.1966 65.2217C34.9889 65.5087 35.677 65.8495 35.677 66.6567C35.677 67.5536 34.8221 68.2173 33.7587 68.2173C32.7787 68.2173 32.0488 67.6971 31.8403 66.9078L32.5076 66.7464C32.591 67.2666 33.0706 67.6971 33.7378 67.6971C34.4051 67.6971 34.9889 67.2845 34.9889 66.7105C34.9889 66.1186 34.4259 65.9213 33.8629 65.706L33.4876 65.5625C32.7787 65.2934 32.1531 64.9885 32.1531 64.271C32.1531 63.4817 32.9663 62.9795 33.8629 62.9795C34.5511 62.9795 35.114 63.2665 35.4477 63.7687L34.9055 64.0557Z" fill="#464546"/>
<path d="M39.0968 68.1457H38.4087V63.0693H39.0968V68.1457Z" fill="#464546"/>
<path d="M47.7504 65.5984C47.7712 66.28 47.667 66.854 47.1248 67.3921C46.5618 67.9303 45.7069 68.2352 44.852 68.2352C43.1213 68.2352 41.7034 67.0513 41.7034 65.6163C41.7034 64.1634 43.1421 62.9795 44.8937 62.9795C45.9571 62.9795 46.8329 63.3741 47.4793 64.0737L46.9788 64.4504C46.4576 63.8584 45.7694 63.4997 44.8728 63.4997C43.4758 63.4997 42.3706 64.4683 42.3706 65.6163C42.3706 66.1544 42.6417 66.6746 43.0796 67.0513C43.5175 67.428 44.1847 67.6971 44.8103 67.6971C45.8737 67.6971 46.9997 67.0513 46.9997 66.1006H45.1856V65.5804L47.7504 65.5984Z" fill="#464546"/>
<path d="M50.5027 62.8535L55.2777 66.9971V63.0688H55.9658V68.3783L51.1908 64.2347V68.1451H50.5027V62.8535Z" fill="#464546"/>
<path d="M70.8749 67.4277C70.3327 67.8402 69.6863 68.2348 68.9148 68.2348C67.9765 68.2348 67.1216 67.6608 67.1216 66.8537C67.1216 66.0106 67.8722 65.598 68.6229 65.1855L68.7063 65.1496C68.4352 64.8267 68.1016 64.4859 68.1016 64.0733C68.1016 63.4276 68.6855 62.9971 69.4361 62.9971C70.1242 62.9971 70.7289 63.4096 70.7289 63.9836C70.7289 64.5935 70.1659 64.9164 69.6446 65.2572L70.9374 66.6205L71.6255 65.9568L72.126 66.2976L71.3545 67.051L72.3971 68.1631H71.5213L70.8749 67.4277ZM68.7897 65.7236C68.331 65.9926 67.768 66.2976 67.768 66.8178C67.768 67.3021 68.2684 67.7326 68.8523 67.7326C69.4778 67.7326 69.9991 67.338 70.437 67.0151L69.0608 65.5621L68.7897 65.7236ZM69.311 64.8088C69.6655 64.5935 70.0825 64.3962 70.0825 63.9836C70.0825 63.6787 69.7697 63.4634 69.4153 63.4634C69.0399 63.4634 68.748 63.7146 68.748 64.0195C68.748 64.2706 68.9565 64.468 69.1233 64.6653L69.2693 64.8267L69.311 64.8088Z" fill="#008242"/>
<path d="M82.4265 63.0693H83.5734C84.4908 63.0693 85.2415 63.177 85.9713 63.6792C86.6803 64.1815 86.993 64.8631 86.993 65.6165C86.993 66.3519 86.6594 67.0156 85.9922 67.4999C85.2623 68.038 84.5325 68.1457 83.5734 68.1457H82.4265V63.0693ZM83.5942 67.6255C84.3449 67.6255 84.9704 67.5358 85.5334 67.1053C86.0339 66.7107 86.3049 66.1905 86.3049 65.6165C86.3049 65.0425 86.0339 64.4864 85.5126 64.0918C84.9496 63.6792 84.324 63.6075 83.6151 63.6075H83.1146V67.6255H83.5942Z" fill="#464546"/>
<path d="M89.6621 63.0693H92.8316V63.5895H90.3294V65.0963H92.7482V65.6165H90.3294V67.6255H92.8316V68.1457H89.6621V63.0693Z" fill="#464546"/>
<path d="M97.6482 66.9439L99.3998 63.0693H100.15L97.6691 68.4506L95.1877 63.0693H95.9384L97.6482 66.9439Z" fill="#464546"/>
<path d="M102.528 63.0693H105.697V63.5895H103.195V65.0963H105.614V65.6165H103.195V67.6255H105.697V68.1457H102.528V63.0693Z" fill="#464546"/>
<path d="M109.263 67.6255H110.952V68.1457H108.575V63.0693H109.263V67.6255Z" fill="#464546"/>
<path d="M119.438 65.6163C119.438 67.0693 117.999 68.2352 116.248 68.2352C114.496 68.2352 113.058 67.0693 113.058 65.6163C113.058 64.1634 114.496 62.9795 116.248 62.9795C117.999 62.9795 119.438 64.1634 119.438 65.6163ZM113.746 65.6163C113.746 66.7643 114.872 67.715 116.269 67.715C117.666 67.715 118.771 66.7643 118.771 65.6163C118.771 64.4683 117.666 63.5176 116.269 63.5176C114.851 63.4997 113.746 64.4504 113.746 65.6163Z" fill="#464546"/>
<path d="M122.775 68.1457H122.086V63.0693H123.087C123.609 63.0693 124.151 63.0873 124.609 63.3384C125.068 63.6075 125.298 64.038 125.298 64.5043C125.298 64.9169 125.089 65.3295 124.714 65.5985C124.297 65.8855 123.775 65.9394 123.254 65.9394H122.754V68.1457H122.775ZM122.775 65.4012H123.233C123.984 65.4012 124.63 65.2039 124.63 64.4864C124.63 63.6613 123.817 63.5895 123.025 63.5895H122.775V65.4012Z" fill="#464546"/>
<path d="M122.274 9.43579C122.42 9.43579 122.524 9.41785 122.566 9.36404C122.629 9.32816 122.65 9.23847 122.65 9.14879C122.65 9.04116 122.608 8.96941 122.566 8.93353C122.504 8.89766 122.399 8.86178 122.274 8.86178H121.982V9.43579H122.274ZM122.003 9.83041V10.6735H121.336V8.44922H122.358C122.691 8.44922 122.942 8.50303 123.108 8.59272C123.275 8.68241 123.359 8.84385 123.359 9.0591C123.359 9.2026 123.317 9.32816 123.233 9.41785C123.15 9.50754 123.025 9.57929 122.858 9.6331C122.942 9.65104 123.025 9.68691 123.108 9.75866C123.192 9.83041 123.254 9.9201 123.338 10.0457L123.713 10.6735H123.004L122.691 10.1174C122.629 10.0098 122.566 9.9201 122.504 9.88423C122.441 9.84835 122.358 9.81248 122.233 9.81248H122.003" fill="#008242"/>
<path d="M122.399 6.99609C120.731 6.99609 119.376 8.16204 119.376 9.59705C119.376 11.0321 120.731 12.198 122.399 12.198C124.068 12.198 125.423 11.0321 125.423 9.59705C125.423 8.16204 124.068 6.99609 122.399 6.99609ZM122.399 11.4984C121.19 11.4984 120.189 10.6374 120.189 9.59705C120.189 8.55666 121.169 7.69566 122.399 7.69566C123.609 7.69566 124.61 8.53873 124.61 9.59705C124.631 10.6374 123.63 11.4984 122.399 11.4984Z" fill="#008242"/>
</svg>
