<svg width="142" height="80" viewBox="0 0 142 80" fill="none" xmlns="http://www.w3.org/2000/svg">
<path d="M138.789 62.3857H14.0747V70.3857H138.789V62.3857Z" fill="white"/>
<path d="M119.897 2.32227H123.796C123.63 2.48553 123.463 2.6488 123.317 2.81206L123.525 2.55809C122.233 2.53995 120.94 2.48553 119.647 2.59437C119.71 2.52181 119.835 2.39483 119.897 2.32227Z" fill="white"/>
<path d="M119.668 2.59431C120.961 2.48547 122.253 2.53989 123.546 2.55803L123.338 2.812C115.977 11.2111 108.637 19.5921 101.277 27.9549C104.613 31.4197 107.949 34.8846 111.285 38.3313C109.784 38.3313 108.304 38.3313 106.802 38.3313C103.8 35.1385 100.755 31.9639 97.7527 28.7712C97.7527 28.2814 97.7527 27.7916 97.7527 27.2837C102.945 21.4242 108.158 15.583 113.35 9.72357C115.456 7.34715 117.624 5.02515 119.668 2.59431Z" fill="white"/>
<path d="M39.8476 18.6308C42.6417 17.4335 45.978 17.3065 48.9389 18.0866C51.5662 18.7578 53.9642 20.2816 55.2778 22.404C55.82 23.2385 56.1119 24.1637 56.4038 25.0888C55.1736 25.0888 53.9642 25.0888 52.7339 25.0888C52.3377 23.8734 51.5662 22.7124 50.3568 21.9868C48.6261 20.8802 46.4158 20.4993 44.289 20.59C42.2664 20.7895 40.3063 21.5877 38.9718 22.9482C37.2202 24.6716 36.5321 27.1024 36.97 29.37C37.3662 31.946 39.4097 34.3405 42.2664 35.2113C43.4758 35.6466 44.8103 35.6285 46.1031 35.5741C48.918 35.3927 51.5037 33.76 52.5671 31.4924C49.6479 31.4743 46.7286 31.4924 43.8094 31.4924C43.7885 30.5129 43.8094 29.5151 43.7885 28.5355C48.0423 28.5355 52.2752 28.5355 56.5289 28.5355C56.3621 29.8598 56.3412 31.2385 55.7157 32.472C54.2978 35.3564 51.17 37.4607 47.7086 38.2226C45.5401 38.7305 43.2047 38.5673 41.0987 37.9324C38.3671 37.1342 36.0526 35.3564 34.7806 33.107C32.9874 29.9868 33.0082 26.1228 34.8014 23.0027C35.8649 21.116 37.679 19.5559 39.8476 18.6308Z" fill="white"/>
<path d="M58.197 17.7422C63.0138 17.7422 67.8305 17.7422 72.6472 17.7422C72.6472 18.7218 72.6472 19.7195 72.6472 20.6991C68.9773 20.6991 65.3074 20.6991 61.6376 20.6991C61.6376 22.622 61.6376 24.563 61.6376 26.486C65.224 26.486 68.8314 26.486 72.4179 26.486C72.4179 27.5018 72.4179 28.5177 72.4179 29.5336C68.8314 29.5336 65.2449 29.5336 61.6376 29.5336C61.6376 31.4746 61.6376 33.4157 61.6376 35.3567C65.3074 35.3748 68.9982 35.3567 72.6681 35.3567C72.6681 36.3363 72.6681 37.334 72.6681 38.3318C67.8514 38.3318 63.0346 38.3318 58.197 38.3318C58.197 31.4746 58.2179 24.6175 58.197 17.7422Z" fill="white"/>
<path d="M76.8384 17.7422C81.6551 17.7422 86.4719 17.7422 91.2886 17.7422C91.2886 18.7218 91.2886 19.7195 91.2886 20.6991C87.6187 20.6991 83.9488 20.6991 80.2789 20.6991C80.2789 22.622 80.2789 24.563 80.2789 26.486C83.8654 26.486 87.4727 26.486 91.0592 26.486C91.0592 27.5018 91.0592 28.5177 91.0592 29.5336C87.4727 29.5336 83.8654 29.5336 80.2789 29.5336C80.2789 31.4746 80.2789 33.4157 80.2789 35.3567C83.9488 35.3567 87.6396 35.3567 91.3095 35.3567C91.3095 36.3544 91.3095 37.334 91.3095 38.3318C86.4927 38.3318 81.6551 38.3318 76.8384 38.3318C76.8384 31.4746 76.8384 24.6175 76.8384 17.7422Z" fill="white"/>
<path d="M93.7075 17.7422C94.8335 17.7422 95.9804 17.7422 97.1063 17.7422C97.1063 24.5993 97.1063 31.4746 97.1063 38.3318C95.9804 38.3318 94.8335 38.3318 93.7075 38.3318C93.7075 31.4746 93.7075 24.6175 93.7075 17.7422Z" fill="white"/>
<path d="M3.58643 20.8984C4.81668 20.8984 6.02607 20.8984 7.25632 20.8984C10.1964 28.8077 13.2199 36.717 16.1808 44.6263C17.5571 48.1819 18.829 51.7737 20.2678 55.3111C20.8933 53.5152 21.7065 51.7556 22.3738 49.9778C22.9785 48.5447 23.4998 47.0753 24.167 45.6422C25.0428 45.6603 25.9186 45.6603 26.7944 45.6422C28.1289 48.7805 29.4008 51.9551 30.6311 55.1116C30.6936 55.0753 30.8187 55.0028 30.8813 54.9846C32.6745 50.1048 34.5929 45.2794 36.4487 40.4177C37.6581 40.4177 38.8466 40.4177 40.056 40.4177C37.3662 47.3293 34.7389 54.2408 32.049 61.1524C31.2566 61.1524 30.4643 61.1524 29.6719 61.1524C28.2331 57.8508 26.8986 54.5311 25.4598 51.2295C24.0836 54.5311 22.7491 57.8508 21.3312 61.1524C20.5389 61.1343 19.7673 61.1343 18.975 61.1524C14.1582 48.6898 9.40405 36.191 4.60816 23.7284C4.27453 22.7851 3.8575 21.8599 3.58643 20.8984Z" fill="white"/>
<path d="M76.5465 40.4172C78.4857 40.4172 80.4458 40.9977 81.8637 42.1587C84.6578 44.4444 84.9289 48.6712 82.4267 51.2108C81.3216 52.3718 79.6951 53.0249 78.027 53.3333C80.5292 55.8911 82.9897 58.4671 85.4919 61.043C84.0114 61.043 82.531 61.043 81.0505 61.043C78.2981 58.1587 75.5248 55.2562 72.7515 52.3718C72.1885 51.9002 72.5013 51.1746 72.4387 50.5759C73.815 50.5759 75.1703 50.5759 76.5465 50.5759C77.6934 50.5759 78.8611 50.2131 79.6534 49.4693C80.9254 48.2721 81.0713 46.3129 80.0288 44.9705C79.2364 43.9183 77.7559 43.4104 76.3589 43.4285C74.6282 43.4285 72.9183 43.4285 71.1876 43.4285C71.1876 49.3061 71.1876 55.1655 71.1876 61.043C70.0617 61.043 68.9148 61.043 67.7888 61.043C67.7888 54.1678 67.8097 47.3106 67.7888 40.4353C70.7081 40.399 73.6273 40.399 76.5465 40.4172Z" fill="white"/>
<path d="M88.3277 40.417C89.4537 40.417 90.5797 40.417 91.7057 40.417C91.7057 47.2741 91.7057 54.1494 91.7057 61.0066C90.5797 61.0066 89.4329 61.0066 88.3069 61.0066C88.3277 54.1494 88.3277 47.2923 88.3277 40.417Z" fill="white"/>
<path d="M92.3313 50.014C95.0837 46.8213 97.8778 43.6467 100.609 40.4358C102.048 40.4177 103.508 40.4358 104.947 40.4358C101.902 43.8281 98.9204 47.2567 95.8761 50.649C99.2123 54.1138 102.507 57.5787 105.885 61.0072C104.655 61.0254 103.424 61.0072 102.194 61.0254C101.84 61.0072 101.381 61.0979 101.152 60.7714C98.2949 57.7782 95.4799 54.7669 92.6024 51.7737C92.1019 51.302 92.4147 50.5945 92.3313 50.014Z" fill="white"/>
<path d="M107.845 40.4358C109.242 40.4177 110.639 40.4358 112.036 40.4358C114.184 42.9936 116.352 45.5696 118.479 48.1455C120.71 45.6059 122.816 42.9936 125.006 40.4358C126.403 40.4358 127.779 40.4358 129.176 40.4358C126.737 43.3746 124.297 46.3133 121.857 49.2521C121.461 49.7601 120.94 50.2317 120.627 50.7941C121.565 52.1002 122.691 53.2793 123.713 54.5492C128.092 59.8462 132.575 65.0707 136.954 70.3678C135.619 70.4041 134.285 70.3678 132.971 70.3859C128.175 64.7805 123.484 59.1206 118.667 53.5152C118.521 53.2975 118.271 53.5877 118.187 53.6966C116.144 56.1274 114.163 58.5764 112.099 60.9709C110.702 61.0798 109.284 60.9891 107.866 61.0072C110.326 58.0684 112.787 55.1297 115.247 52.1728C115.623 51.7011 116.061 51.2657 116.373 50.7578C113.621 47.2929 110.702 43.8825 107.845 40.4358Z" fill="white"/>
<path d="M52.2334 39.7646C45.4983 39.7646 40.0352 44.5175 40.0352 50.3769C40.0352 56.2363 45.4983 60.9891 52.2334 60.9891C58.9685 60.9891 64.4316 56.2363 64.4316 50.3769C64.4316 44.5175 58.9685 39.7646 52.2334 39.7646ZM52.2751 58.1048C47.3541 58.1048 43.3506 54.6218 43.3506 50.3406C43.3506 46.0594 47.3332 42.5764 52.2751 42.5764C57.1961 42.5764 61.1996 46.0413 61.1996 50.3406C61.1996 54.6218 57.1961 58.1048 52.2751 58.1048Z" fill="white"/>
<path d="M18.8081 63.7822H19.9549C20.8724 63.7822 21.6231 63.8911 22.3529 64.399C23.0618 64.9069 23.3746 65.5963 23.3746 66.3582C23.3746 67.102 23.041 67.7732 22.3737 68.2629C21.6439 68.8072 20.9141 68.916 19.9549 68.916H18.8081V63.7822ZM19.9967 68.3899C20.7473 68.3899 21.3729 68.2992 21.9359 67.8639C22.4363 67.4648 22.7074 66.9387 22.7074 66.3582C22.7074 65.7777 22.4363 65.2153 21.915 64.8162C21.352 64.399 20.7265 64.3264 20.0175 64.3264H19.5171V68.3899H19.9967Z" fill="#464546"/>
<path d="M26.0437 63.7822H29.2132V64.3083H26.711V65.8321H29.1298V66.3582H26.711V68.3899H29.2132V68.916H26.0437V63.7822Z" fill="#464546"/>
<path d="M34.9055 64.7798C34.6553 64.417 34.3634 64.2175 33.8421 64.2175C33.3 64.2175 32.8204 64.544 32.8204 65.0157C32.8204 65.451 33.3625 65.6687 33.7795 65.8139L34.1966 65.959C34.9889 66.2492 35.677 66.5939 35.677 67.4102C35.677 68.3173 34.8221 68.9885 33.7587 68.9885C32.7787 68.9885 32.0488 68.4624 31.8403 67.6642L32.5076 67.5009C32.591 68.027 33.0706 68.4624 33.7378 68.4624C34.4051 68.4624 34.9889 68.0451 34.9889 67.4646C34.9889 66.866 34.4259 66.6665 33.8629 66.4488L33.4876 66.3036C32.7787 66.0315 32.1531 65.7231 32.1531 64.9975C32.1531 64.1993 32.9663 63.6914 33.8629 63.6914C34.5511 63.6914 35.114 63.9817 35.4477 64.4896L34.9055 64.7798Z" fill="#464546"/>
<path d="M39.0968 68.916H38.4087V63.7822H39.0968V68.916Z" fill="#464546"/>
<path d="M47.7504 66.3399C47.7712 67.0293 47.667 67.6098 47.1248 68.154C46.5618 68.6982 45.7069 69.0066 44.852 69.0066C43.1213 69.0066 41.7034 67.8093 41.7034 66.3581C41.7034 64.8887 43.1421 63.6914 44.8937 63.6914C45.9571 63.6914 46.8329 64.0905 47.4793 64.798L46.9788 65.1789C46.4576 64.5803 45.7694 64.2175 44.8728 64.2175C43.4758 64.2175 42.3706 65.1971 42.3706 66.3581C42.3706 66.9023 42.6417 67.4284 43.0796 67.8093C43.5175 68.1903 44.1847 68.4624 44.8103 68.4624C45.8737 68.4624 46.9997 67.8093 46.9997 66.8479H45.1856V66.3218L47.7504 66.3399Z" fill="#464546"/>
<path d="M50.5027 63.5645L55.2777 67.7549V63.7821H55.9658V69.1518L51.1908 64.9613V68.9159H50.5027V63.5645Z" fill="#464546"/>
<path d="M70.8749 68.1907C70.3327 68.6079 69.6863 69.007 68.9148 69.007C67.9765 69.007 67.1216 68.4265 67.1216 67.6102C67.1216 66.7576 67.8722 66.3403 68.6229 65.9231L68.7063 65.8868C68.4352 65.5603 68.1016 65.2156 68.1016 64.7984C68.1016 64.1453 68.6855 63.71 69.4361 63.71C70.1242 63.71 70.7289 64.1272 70.7289 64.7077C70.7289 65.3245 70.1659 65.651 69.6446 65.9957L70.9374 67.3744L71.6255 66.7032L72.126 67.0478L71.3545 67.8097L72.3971 68.9344H71.5213L70.8749 68.1907ZM68.7897 66.4673C68.331 66.7394 67.768 67.0478 67.768 67.5739C67.768 68.0637 68.2684 68.4991 68.8523 68.4991C69.4778 68.4991 69.9991 68.1 70.437 67.7735L69.0608 66.3041L68.7897 66.4673ZM69.311 65.5422C69.6655 65.3245 70.0825 65.1249 70.0825 64.7077C70.0825 64.3993 69.7697 64.1816 69.4153 64.1816C69.0399 64.1816 68.748 64.4356 68.748 64.744C68.748 64.9979 68.9565 65.1975 69.1233 65.397L69.2693 65.5603L69.311 65.5422Z" fill="#008242"/>
<path d="M82.4265 63.7822H83.5734C84.4908 63.7822 85.2415 63.8911 85.9713 64.399C86.6803 64.9069 86.993 65.5963 86.993 66.3582C86.993 67.102 86.6594 67.7732 85.9922 68.2629C85.2623 68.8072 84.5325 68.916 83.5734 68.916H82.4265V63.7822ZM83.5942 68.3899C84.3449 68.3899 84.9704 68.2992 85.5334 67.8639C86.0339 67.4648 86.3049 66.9387 86.3049 66.3582C86.3049 65.7777 86.0339 65.2153 85.5126 64.8162C84.9496 64.399 84.324 64.3264 83.6151 64.3264H83.1146V68.3899H83.5942Z" fill="#464546"/>
<path d="M89.6621 63.7822H92.8316V64.3083H90.3294V65.8321H92.7482V66.3582H90.3294V68.3899H92.8316V68.916H89.6621V63.7822Z" fill="#464546"/>
<path d="M97.6482 67.7006L99.3998 63.7822H100.15L97.6691 69.2244L95.1877 63.7822H95.9384L97.6482 67.7006Z" fill="#464546"/>
<path d="M102.528 63.7822H105.697V64.3083H103.195V65.8321H105.614V66.3582H103.195V68.3899H105.697V68.916H102.528V63.7822Z" fill="#464546"/>
<path d="M109.263 68.3899H110.952V68.916H108.575V63.7822H109.263V68.3899Z" fill="#464546"/>
<path d="M119.438 66.3581C119.438 67.8275 117.999 69.0066 116.248 69.0066C114.496 69.0066 113.058 67.8275 113.058 66.3581C113.058 64.8887 114.496 63.6914 116.248 63.6914C117.999 63.6914 119.438 64.8887 119.438 66.3581ZM113.746 66.3581C113.746 67.5191 114.872 68.4805 116.269 68.4805C117.666 68.4805 118.771 67.5191 118.771 66.3581C118.771 65.1971 117.666 64.2356 116.269 64.2356C114.851 64.2175 113.746 65.1789 113.746 66.3581Z" fill="#464546"/>
<path d="M122.775 68.916H122.086V63.7822H123.087C123.609 63.7822 124.151 63.8004 124.609 64.0543C125.068 64.3264 125.298 64.7618 125.298 65.2335C125.298 65.6507 125.089 66.0679 124.714 66.3401C124.297 66.6303 123.775 66.6847 123.254 66.6847H122.754V68.916H122.775ZM122.775 66.1405H123.233C123.984 66.1405 124.63 65.941 124.63 65.2153C124.63 64.3809 123.817 64.3083 123.025 64.3083H122.775V66.1405Z" fill="#464546"/>
<path d="M122.274 9.54265C122.42 9.54265 122.524 9.52451 122.566 9.47009C122.629 9.43381 122.65 9.34311 122.65 9.25241C122.65 9.14356 122.608 9.071 122.566 9.03472C122.504 8.99844 122.399 8.96216 122.274 8.96216H121.982V9.54265H122.274ZM122.003 9.94175V10.7944H121.336V8.54492H122.358C122.691 8.54492 122.942 8.59934 123.108 8.69005C123.275 8.78075 123.359 8.94402 123.359 9.1617C123.359 9.30683 123.317 9.43381 123.233 9.52451C123.15 9.61522 123.025 9.68778 122.858 9.7422C122.942 9.76034 123.025 9.79662 123.108 9.86919C123.192 9.94175 123.254 10.0325 123.338 10.1594L123.713 10.7944H123.004L122.691 10.232C122.629 10.1232 122.566 10.0325 122.504 9.99617C122.441 9.95989 122.358 9.92361 122.233 9.92361H122.003" fill="white"/>
<path d="M122.399 7.0752C120.731 7.0752 119.376 8.25433 119.376 9.70558C119.376 11.1568 120.731 12.336 122.399 12.336C124.068 12.336 125.423 11.1568 125.423 9.70558C125.423 8.25433 124.068 7.0752 122.399 7.0752ZM122.399 11.6285C121.19 11.6285 120.189 10.7577 120.189 9.70558C120.189 8.65343 121.169 7.78268 122.399 7.78268C123.609 7.78268 124.61 8.63529 124.61 9.70558C124.631 10.7577 123.63 11.6285 122.399 11.6285Z" fill="white"/>
<path d="M15.3259 76.2992L14.6795 77.8412H14.3042L16.2017 73.4512H16.5562L18.4328 77.8412H18.0575L17.3902 76.2992H15.3259ZM17.286 76.0271L16.6396 74.5577C16.5145 74.2494 16.4519 74.0317 16.3685 73.7777H16.3477C16.2643 74.0317 16.1809 74.2675 16.0766 74.5396L15.4302 76.0271H17.286Z" fill="white" stroke="white"/>
<path d="M19.2252 75.4462C19.2252 75.156 19.2043 74.9383 19.2043 74.7024H19.538L19.5588 75.2648H19.5797C19.7882 74.9201 20.2469 74.6299 20.8516 74.6299C21.2061 74.6299 22.1444 74.775 22.1444 75.9541V77.8226H21.7691V75.9723C21.7691 75.4099 21.498 74.8838 20.7474 74.8838C20.2261 74.8838 19.7882 75.1922 19.6214 75.6095C19.6005 75.682 19.5797 75.7909 19.5797 75.8816V77.8226H19.2043V75.4462H19.2252Z" fill="white" stroke="white"/>
<path d="M25.4598 73.4508V77.8226H25.0845V73.4326H25.4598V73.4508Z" fill="white" stroke="white"/>
<path d="M26.5649 77.3507C26.8568 77.514 27.2739 77.641 27.7117 77.641C28.4833 77.641 28.9629 77.26 28.9629 76.7339C28.9629 76.2441 28.6501 75.9539 27.8994 75.6999C27.0653 75.446 26.5441 75.0831 26.5441 74.4845C26.5441 73.8496 27.1696 73.3779 28.0662 73.3779C28.5667 73.3779 28.9211 73.4868 29.1088 73.5775L28.9837 73.8314C28.8377 73.7407 28.5041 73.6319 28.0662 73.6319C27.2322 73.6319 26.9402 74.0854 26.9402 74.4301C26.9402 74.9199 27.2739 75.1739 28.0245 75.4097C28.8794 75.6999 29.3382 76.0265 29.3382 76.6795C29.3382 77.3144 28.796 77.8768 27.67 77.8768C27.2113 77.8768 26.69 77.7498 26.4189 77.5865L26.5649 77.3507Z" fill="white" stroke="white"/>
<path d="M34.6138 75.5911C34.6138 77.133 33.4878 77.8949 32.2785 77.8949C30.9856 77.8949 30.0056 77.0423 30.0056 75.6818C30.0056 74.2487 31.0482 73.3779 32.341 73.3779C33.6547 73.3779 34.6138 74.2305 34.6138 75.5911ZM30.3601 75.6636C30.3601 76.6432 31.0482 77.641 32.2785 77.641C33.5296 77.641 34.2177 76.6977 34.2177 75.6092C34.2177 74.684 33.613 73.6319 32.2993 73.6319C30.9856 73.6319 30.3601 74.6478 30.3601 75.6636Z" fill="white" stroke="white"/>
<path d="M37.3662 77.6232C37.5121 77.6414 37.6998 77.6232 37.9291 77.5869C38.3462 77.5325 38.7215 77.3692 39.0343 77.0971C39.3679 76.7887 39.6181 76.3715 39.7224 75.7547H39.7015C39.3888 76.0994 38.93 76.299 38.4087 76.299C37.4704 76.299 36.97 75.6822 36.97 75.011C36.97 74.2309 37.5955 73.5234 38.5756 73.5234C39.4305 73.5234 40.0977 74.1402 40.0977 75.2831C40.0977 76.2445 39.7015 76.8976 39.2428 77.2785C38.9092 77.5688 38.4504 77.7683 38.0543 77.8228C37.7832 77.859 37.5538 77.8772 37.387 77.8772V77.6232H37.3662ZM37.3244 74.9928C37.3244 75.6277 37.7832 76.0268 38.4504 76.0268C38.9926 76.0268 39.4305 75.791 39.639 75.4826C39.6598 75.4282 39.7015 75.3738 39.7015 75.3012C39.7015 74.4123 39.3054 73.7955 38.4921 73.7955C37.804 73.7955 37.3244 74.3035 37.3244 74.9928Z" fill="white" stroke="white"/>
<path d="M43.8719 75.6459C43.8719 77.1697 43.2255 77.8953 42.2247 77.8953C41.4323 77.8953 40.7025 77.2423 40.6816 75.7366C40.6816 74.1946 41.4949 73.5234 42.3289 73.5234C43.2047 73.5234 43.8719 74.1946 43.8719 75.6459ZM41.057 75.7366C41.057 76.9157 41.5366 77.6414 42.2664 77.6414C43.1004 77.6414 43.4966 76.8432 43.4966 75.6822C43.4966 74.5756 43.1421 73.7774 42.2872 73.7774C41.5783 73.7774 41.057 74.4849 41.057 75.7366Z" fill="white" stroke="white"/>
<path d="M47.6461 75.6459C47.6461 77.1697 46.9997 77.8953 45.9988 77.8953C45.2065 77.8953 44.4767 77.2423 44.4558 75.7366C44.4558 74.1946 45.269 73.5234 46.1031 73.5234C46.9997 73.5234 47.6461 74.1946 47.6461 75.6459ZM44.8311 75.7366C44.8311 76.9157 45.3107 77.6414 46.0405 77.6414C46.8746 77.6414 47.2708 76.8432 47.2708 75.6822C47.2708 74.5756 46.9163 73.7774 46.0614 73.7774C45.3524 73.7774 44.8311 74.4849 44.8311 75.7366Z" fill="white" stroke="white"/>
<path d="M49.7729 73.9222L48.9389 74.3213L48.8555 74.0674L49.8146 73.5957H50.1483V77.8225H49.7938V73.9222H49.7729Z" fill="white" stroke="white"/>
<path d="M53.7974 75.9004V76.1725H51.9624V75.9004H53.7974Z" fill="white" stroke="white"/>
<path d="M54.3811 77.8232V77.6418L54.8398 77.2427C56.2369 76.0998 56.8625 75.5012 56.8625 74.7756C56.8625 74.2858 56.6122 73.8141 55.7573 73.8141C55.2777 73.8141 54.9024 74.0136 54.6939 74.1769L54.5479 73.9592C54.8815 73.7053 55.3194 73.542 55.8407 73.542C56.8833 73.542 57.2378 74.2132 57.2378 74.703C57.2378 75.5375 56.5288 76.2087 55.2569 77.2427L54.9024 77.5511V77.5692H57.3838V77.8413H54.3811V77.8232Z" fill="white" stroke="white"/>
<path d="M61.3038 75.6459C61.3038 77.1697 60.6574 77.8953 59.6565 77.8953C58.8642 77.8953 58.1344 77.2423 58.1135 75.7366C58.1135 74.1946 58.9267 73.5234 59.7608 73.5234C60.6366 73.5234 61.3038 74.1946 61.3038 75.6459ZM58.4889 75.7366C58.4889 76.9157 58.9684 77.6414 59.6982 77.6414C60.5323 77.6414 60.9285 76.8432 60.9285 75.6822C60.9285 74.5756 60.574 73.7774 59.7191 73.7774C59.0101 73.7774 58.4889 74.4849 58.4889 75.7366Z" fill="white" stroke="white"/>
<path d="M63.4099 73.9222L62.5758 74.3213L62.4924 74.0674L63.4516 73.5957H63.7852V77.8225H63.4308V73.9222H63.4099Z" fill="white" stroke="white"/>
<path d="M68.5186 73.8678H66.6211L66.3709 75.2284C66.496 75.2102 66.6002 75.1921 66.8296 75.1921C67.1632 75.1921 67.476 75.2465 67.7679 75.3735C68.1641 75.5367 68.5603 75.9177 68.5603 76.4801C68.5603 77.3327 67.7888 77.895 66.8713 77.895C66.35 77.895 65.933 77.7499 65.7036 77.6229L65.8496 77.3689C66.0372 77.4778 66.4334 77.6229 66.8922 77.6229C67.622 77.6229 68.2058 77.1694 68.185 76.5345C68.185 75.9177 67.7262 75.4642 66.7253 75.4642C66.4126 75.4642 66.1832 75.4823 66.0164 75.5186L66.35 73.5957H68.5394V73.8678H68.5186Z" fill="white" stroke="white"/>
<path d="M75.0243 77.6773C74.7532 77.7861 74.2528 77.8949 73.6063 77.8949C72.3344 77.8949 71.125 77.2237 71.125 75.6636C71.125 74.3575 72.1259 73.3779 73.7732 73.3779C74.4404 73.3779 74.8157 73.5049 74.9826 73.5775L74.8575 73.8314C74.5864 73.7226 74.211 73.65 73.7732 73.65C72.3552 73.65 71.5003 74.4119 71.5003 75.6818C71.5003 76.8791 72.3135 77.641 73.7106 77.641C74.1485 77.641 74.5864 77.5684 74.8992 77.4414L75.0243 77.6773Z" fill="white" stroke="white"/>
<path d="M75.9 76.2448C75.9 77.2425 76.5464 77.6416 77.3179 77.6416C77.8601 77.6416 78.152 77.5509 78.3605 77.4602L78.4648 77.6961C78.3188 77.7686 77.9435 77.8956 77.2971 77.8956C76.2337 77.8956 75.5664 77.2425 75.5664 76.3355C75.5664 75.3015 76.2754 74.6484 77.2345 74.6484C78.4439 74.6484 78.6942 75.6099 78.6942 76.0634C78.6942 76.1541 78.6942 76.2085 78.6733 76.2629H75.9V76.2448ZM78.2771 75.9908C78.2771 75.5555 78.0686 74.8843 77.172 74.8843C76.3588 74.8843 76.0043 75.501 75.9209 75.9908H78.2771Z" fill="white" stroke="white"/>
<path d="M79.6117 75.6458C79.6117 75.3374 79.5908 75.0108 79.5908 74.7024H79.9244L79.9453 75.3374H79.9661C80.133 74.9383 80.5083 74.6299 81.0296 74.6299C81.0921 74.6299 81.1338 74.6299 81.1755 74.648V74.9383C81.113 74.9201 81.0713 74.9201 80.9879 74.9201C80.4874 74.9201 80.1121 75.3011 80.0079 75.7909C79.987 75.8816 79.987 75.9904 79.987 76.0811V77.8045H79.6117V75.6458Z" fill="white" stroke="white"/>
<path d="M82.6143 73.7959V74.7029H83.6777V74.9569H82.6143V76.9886C82.6143 77.3877 82.7602 77.6417 83.1564 77.6417C83.3441 77.6417 83.49 77.6236 83.5734 77.5873L83.6151 77.8231C83.49 77.8594 83.3232 77.8957 83.0939 77.8957C82.8228 77.8957 82.5934 77.8231 82.4474 77.678C82.2806 77.5147 82.2181 77.2608 82.2181 76.9342V74.9569H81.5925V74.7029H82.2181V73.9047L82.6143 73.7959Z" fill="white" stroke="white"/>
<path d="M84.9707 73.8141C84.9707 73.9592 84.8664 74.0862 84.6579 74.0862C84.4911 74.0862 84.366 73.9592 84.366 73.8141C84.366 73.669 84.4911 73.542 84.6579 73.542C84.8664 73.542 84.9707 73.669 84.9707 73.8141ZM84.4911 77.8232V74.703H84.8664V77.8232H84.4911Z" fill="white" stroke="white"/>
<path d="M86.1383 77.8228V74.9566H85.5962V74.7027H86.1383V74.5031C86.1383 73.7049 86.5762 73.1426 87.5562 73.1426C87.869 73.1426 88.2444 73.2514 88.4112 73.3603L88.2444 73.5961C88.0775 73.4872 87.8065 73.3965 87.4937 73.3965C86.7222 73.3965 86.4928 73.9226 86.4928 74.5213V74.7027H88.6197V77.8228H88.2444V74.9566H86.5137V77.8228H86.1383Z" fill="white" stroke="white"/>
<path d="M89.9125 76.2448C89.9125 77.2425 90.5589 77.6416 91.3304 77.6416C91.8725 77.6416 92.1645 77.5509 92.373 77.4602L92.4772 77.6961C92.3313 77.7686 91.9559 77.8956 91.3095 77.8956C90.2461 77.8956 89.5789 77.2425 89.5789 76.3355C89.5789 75.3015 90.2878 74.6484 91.247 74.6484C92.4564 74.6484 92.7066 75.6099 92.7066 76.0634C92.7066 76.1541 92.7066 76.2085 92.6858 76.2629H89.9125V76.2448ZM92.2896 75.9908C92.2896 75.5555 92.0811 74.8843 91.1844 74.8843C90.3712 74.8843 90.0167 75.501 89.9333 75.9908H92.2896Z" fill="white" stroke="white"/>
<path d="M96.5851 73.2154V77.0975C96.5851 77.3333 96.6059 77.6054 96.6059 77.8231H96.2723L96.2515 77.2245H96.2306C96.043 77.5691 95.6051 77.8957 94.8961 77.8957C93.9786 77.8957 93.2905 77.2426 93.2905 76.3174C93.2905 75.2834 94.0412 74.6304 94.9587 74.6304C95.6051 74.6304 96.0013 74.9025 96.1681 75.1746H96.1889V73.1973H96.5851V73.2154ZM96.2306 75.9365C96.2306 75.8458 96.2098 75.7369 96.1889 75.6462C96.0638 75.229 95.6259 74.8843 95.0212 74.8843C94.208 74.8843 93.7076 75.483 93.7076 76.2812C93.7076 76.9886 94.1246 77.6417 95.0212 77.6417C95.5425 77.6417 96.043 77.3515 96.2098 76.8254C96.2306 76.7528 96.2515 76.6621 96.2515 76.5714V75.9365H96.2306Z" fill="white" stroke="white"/>
<path d="M103.82 75.5911C103.82 77.133 102.694 77.8949 101.485 77.8949C100.192 77.8949 99.2122 77.0423 99.2122 75.6818C99.2122 74.2487 100.255 73.3779 101.548 73.3779C102.861 73.3779 103.82 74.2305 103.82 75.5911ZM99.5875 75.6636C99.5875 76.6432 100.276 77.641 101.506 77.641C102.757 77.641 103.445 76.6977 103.445 75.6092C103.445 74.684 102.84 73.6319 101.527 73.6319C100.213 73.6319 99.5875 74.6478 99.5875 75.6636Z" fill="white" stroke="white"/>
<path d="M104.738 75.6458C104.738 75.3374 104.717 75.0108 104.717 74.7024H105.051L105.072 75.3374H105.092C105.259 74.9383 105.635 74.6299 106.156 74.6299C106.218 74.6299 106.26 74.6299 106.302 74.648V74.9383C106.239 74.9201 106.198 74.9201 106.114 74.9201C105.614 74.9201 105.238 75.3011 105.134 75.7909C105.113 75.8816 105.113 75.9904 105.113 76.0811V77.8045H104.738V75.6458Z" fill="white" stroke="white"/>
<path d="M109.972 74.703C109.951 74.9388 109.951 75.1747 109.951 75.5012V77.3697C109.951 78.1679 109.763 78.567 109.451 78.8209C109.117 79.093 108.616 79.1837 108.199 79.1837C107.782 79.1837 107.303 79.093 107.011 78.9116L107.136 78.6577C107.386 78.8028 107.762 78.9116 108.241 78.9116C109.013 78.9116 109.596 78.567 109.596 77.6418V77.2064H109.576C109.388 77.5148 108.95 77.805 108.283 77.805C107.344 77.805 106.677 77.1157 106.677 76.2812C106.677 75.1928 107.532 74.6123 108.345 74.6123C109.075 74.6123 109.451 74.957 109.596 75.2109H109.617L109.638 74.6849H109.972V74.703ZM109.555 75.9003C109.555 75.7914 109.534 75.6826 109.513 75.5919C109.367 75.2109 108.971 74.8844 108.345 74.8844C107.553 74.8844 107.011 75.4286 107.011 76.2631C107.011 76.9706 107.449 77.5692 108.325 77.5692C108.825 77.5692 109.284 77.3153 109.471 76.8617C109.513 76.7529 109.534 76.6441 109.534 76.5352V75.9003H109.555Z" fill="white" stroke="white"/>
<path d="M113.204 77.8226L113.141 77.3691H113.12C112.933 77.6049 112.516 77.8952 111.932 77.8952C111.181 77.8952 110.827 77.4598 110.827 77.0426C110.827 76.317 111.577 75.8816 113.099 75.8997V75.809C113.099 75.5006 113.037 74.8838 112.14 74.8838C111.807 74.8838 111.473 74.9564 111.202 75.1197L111.077 74.902C111.411 74.7024 111.828 74.6299 112.161 74.6299C113.245 74.6299 113.433 75.3011 113.433 75.8634V77.0789C113.433 77.3328 113.454 77.5868 113.496 77.8226H113.204ZM113.12 76.1537C112.307 76.1356 111.244 76.2444 111.244 76.9882C111.244 77.4417 111.598 77.6412 111.994 77.6412C112.62 77.6412 112.974 77.3147 113.099 77.0063C113.12 76.9337 113.141 76.8793 113.141 76.8249V76.1537H113.12Z" fill="white" stroke="white"/>
<path d="M114.705 75.4462C114.705 75.156 114.684 74.9383 114.684 74.7024H115.018L115.039 75.2648H115.06C115.268 74.9201 115.727 74.6299 116.332 74.6299C116.686 74.6299 117.624 74.775 117.624 75.9541V77.8226H117.249V75.9723C117.249 75.4099 116.978 74.8838 116.227 74.8838C115.706 74.8838 115.247 75.1922 115.101 75.6095C115.081 75.682 115.06 75.7909 115.06 75.8816V77.8226H114.684V75.4462H114.705Z" fill="white" stroke="white"/>
<path d="M119.355 73.8141C119.355 73.9592 119.251 74.0862 119.042 74.0862C118.875 74.0862 118.75 73.9592 118.75 73.8141C118.75 73.669 118.875 73.542 119.042 73.542C119.23 73.542 119.355 73.669 119.355 73.8141ZM118.855 77.8232V74.703H119.23V77.8232H118.855Z" fill="white" stroke="white"/>
<path d="M119.981 77.6419L121.982 75.4287C122.128 75.2836 122.253 75.1385 122.399 74.9752V74.9571H120.127V74.7031H122.837V74.9208L120.835 77.134C120.71 77.2791 120.585 77.4242 120.439 77.5693V77.5875H122.858V77.8415H119.96V77.6419H119.981Z" fill="white" stroke="white"/>
<path d="M125.631 77.8226L125.569 77.3691H125.548C125.36 77.6049 124.943 77.8952 124.36 77.8952C123.609 77.8952 123.254 77.4598 123.254 77.0426C123.254 76.317 124.005 75.8816 125.527 75.8997V75.809C125.527 75.5006 125.465 74.8838 124.568 74.8838C124.234 74.8838 123.901 74.9564 123.63 75.1197L123.505 74.902C123.838 74.7024 124.255 74.6299 124.589 74.6299C125.673 74.6299 125.861 75.3011 125.861 75.8634V77.0789C125.861 77.3328 125.882 77.5868 125.923 77.8226H125.631ZM125.548 76.1537C124.735 76.1356 123.671 76.2444 123.671 76.9882C123.671 77.4417 124.026 77.6412 124.422 77.6412C125.048 77.6412 125.402 77.3147 125.527 77.0063C125.548 76.9337 125.569 76.8793 125.569 76.8249V76.1537H125.548Z" fill="white" stroke="white"/>
<path d="M127.633 73.7959V74.7029H128.696V74.9569H127.633V76.9886C127.633 77.3877 127.779 77.6417 128.175 77.6417C128.363 77.6417 128.509 77.6236 128.592 77.5873L128.634 77.8231C128.509 77.8594 128.342 77.8957 128.113 77.8957C127.842 77.8957 127.612 77.8231 127.466 77.678C127.299 77.5147 127.237 77.2608 127.237 76.9342V74.9569H126.611V74.7029H127.237V73.9047L127.633 73.7959Z" fill="white" stroke="white"/>
<path d="M129.989 73.8141C129.989 73.9592 129.885 74.0862 129.677 74.0862C129.51 74.0862 129.385 73.9592 129.385 73.8141C129.385 73.669 129.51 73.542 129.677 73.542C129.864 73.542 129.989 73.669 129.989 73.8141ZM129.51 77.8232V74.703H129.885V77.8232H129.51Z" fill="white" stroke="white"/>
<path d="M134.306 76.2442C134.306 77.4052 133.347 77.9131 132.533 77.9131C131.574 77.9131 130.823 77.2782 130.823 76.2986C130.823 75.2283 131.658 74.6478 132.575 74.6478C133.618 74.6297 134.306 75.2827 134.306 76.2442ZM131.199 76.2805C131.199 77.0605 131.783 77.641 132.554 77.641C133.326 77.641 133.93 77.0424 133.93 76.2442C133.93 75.6818 133.555 74.8837 132.575 74.8837C131.637 74.8837 131.199 75.6093 131.199 76.2805Z" fill="white" stroke="white"/>
<path d="M135.265 75.4462C135.265 75.156 135.244 74.9383 135.244 74.7024H135.578L135.598 75.2648H135.619C135.828 74.9201 136.286 74.6299 136.891 74.6299C137.246 74.6299 138.184 74.775 138.184 75.9541V77.8226H137.83V75.9723C137.83 75.4099 137.558 74.8838 136.808 74.8838C136.286 74.8838 135.828 75.1922 135.682 75.6095C135.661 75.682 135.64 75.7909 135.64 75.8816V77.8226H135.265V75.4462Z" fill="white" stroke="white"/>
</svg>
